<svg version="1.1" xmlns="http://www.w3.org/2000/svg" xmlns:xlink="http://www.w3.org/1999/xlink" x="0px" y="0px"
    viewBox="0 0 680.31 680.31" style="enable-background:new 0 0 680.31 680.31;" xml:space="preserve" width="300"
    height="300">
    <style type="text/css">
        .st0 {
            stroke: #000000;
            stroke-miterlimit: 10;
        }

        .st1 {
            fill: #DEA22F;
        }

        .st2 {
            fill: #040007;
        }

        .st3 {
            fill: #DEA22F;
            stroke: #211915;
            stroke-width: 1.5;
            stroke-miterlimit: 10;
        }

        .st4 {
            fill: #DEA22F;
            stroke: #000000;
            stroke-width: 0.75;
            stroke-miterlimit: 10;
        }

        .st5 {
            stroke: #000000;
            stroke-width: 0.75;
            stroke-miterlimit: 10;
        }

        .st6 {
            fill: #211915;
            stroke: #000000;
            stroke-width: 0.75;
            stroke-miterlimit: 10;
        }

        .st7 {
            fill: none;
            stroke: #000000;
            stroke-width: 0.75;
            stroke-miterlimit: 10;
        }
    </style>
    <g id="Capa_2">
        <rect class="st0" width="680.31" height="680.31" />
    </g>
    <g id="Capa_1">
        <g>
            <g>
                <g>
                    <path class="st1" d="M332.81,86C195.05,86,83.36,197.69,83.36,335.45S195.05,584.9,332.81,584.9s249.45-111.68,249.45-249.45
                                        S470.58,86,332.81,86z M332.81,507.67c-95,0-172.02-77.11-172.02-172.22s77.02-172.22,172.02-172.22s172.02,77.11,172.02,172.22
                                        S427.82,507.67,332.81,507.67z" />
                    <path d="M332.81,587.4c-67.3,0-130.57-26.21-178.15-73.79c-47.59-47.59-73.79-110.86-73.79-178.16s26.21-130.57,73.79-178.15
                                        S265.52,83.5,332.81,83.5c67.3,0,130.57,26.21,178.15,73.79s73.79,110.86,73.79,178.15s-26.21,130.57-73.79,178.16
                                        S400.11,587.4,332.81,587.4z M332.81,88.5c-136.17,0-246.95,110.78-246.95,246.95S196.65,582.4,332.81,582.4
                                        c136.17,0,246.95-110.78,246.95-246.95S468.98,88.5,332.81,88.5z M332.81,510.17c-96.23,0-174.52-78.38-174.52-174.72
                                        s78.29-174.72,174.52-174.72c96.23,0,174.52,78.38,174.52,174.72S429.04,510.17,332.81,510.17z M332.81,165.73
                                        c-93.47,0-169.52,76.14-169.52,169.72s76.05,169.72,169.52,169.72c93.47,0,169.52-76.14,169.52-169.72
                                        S426.29,165.73,332.81,165.73z" />
                </g>
                <g>
                    <path
                        d="M332.37,578.9c-65.03,0-126.16-25.32-172.14-71.3c-45.98-45.98-71.3-107.12-71.3-172.14s25.32-126.16,71.3-172.14
                                        s107.12-71.3,172.14-71.3s126.16,25.32,172.14,71.3c45.98,45.98,71.3,107.12,71.3,172.14s-25.32,126.16-71.3,172.14
                                        S397.4,578.9,332.37,578.9z M332.37,97.01c-131.48,0-238.44,106.97-238.44,238.44c0,131.48,106.97,238.45,238.44,238.45
                                        c131.48,0,238.45-106.97,238.45-238.45C570.82,203.97,463.85,97.01,332.37,97.01z" />
                </g>
                <g>
                    <path d="M332.81,517.95c-100.63,0-182.5-81.87-182.5-182.5s81.87-182.5,182.5-182.5c100.63,0,182.5,81.87,182.5,182.5
                                        S433.44,517.95,332.81,517.95z M332.81,157.95c-97.87,0-177.5,79.63-177.5,177.5s79.63,177.5,177.5,177.5
                                        c97.87,0,177.5-79.63,177.5-177.5S430.69,157.95,332.81,157.95z" />
                </g>
                <g>
                    <path class="st2" d="M120.81,402.72l17.12-13.79c0.87-0.73,1.41-1.43,1.6-2.09c0.2-0.67,0.23-1.43,0.11-2.28l0.45-0.14
                                        l3.4,10.68l-0.44,0.14c-0.55-1.43-1.24-2.01-2.08-1.75c-0.13,0.04-0.31,0.12-0.54,0.25c-0.22,0.12-0.46,0.26-0.71,0.43
                                        c-0.25,0.16-0.4,0.26-0.45,0.3l-4.2,3.41l2.14,6.73l5.12,0.14c0.62,0.03,1.15-0.03,1.6-0.17c0.69-0.22,1.1-0.57,1.21-1.06
                                        s0.12-1.02,0.02-1.61l0.44-0.14l2.16,6.76l-0.45,0.14c-0.29-0.68-0.83-1.23-1.62-1.66s-2.05-0.67-3.81-0.74l-20.16-0.62
                                        L120.81,402.72z M135.55,404.56l-1.79-5.61l-6.68,5.33L135.55,404.56z" />
                    <path class="st2"
                        d="M121.25,369.07l0.11,0.55c-1.09,0.4-2.02,0.93-2.79,1.59c-0.77,0.66-1.37,1.38-1.81,2.18
                                        c-0.43,0.79-0.71,1.64-0.82,2.55c-0.12,0.9-0.08,1.83,0.12,2.77c0.26,1.26,0.76,2.31,1.5,3.16c0.73,0.85,1.55,1.45,2.46,1.79
                                        c1.14,0.41,2.34,0.61,3.62,0.61c1.28,0,2.61-0.15,3.99-0.44c2.52-0.52,4.45-1.38,5.77-2.58c1.33-1.2,2.16-2.47,2.5-3.84
                                        c0.33-1.37,0.38-2.65,0.13-3.85c-0.61-2.91-2.56-5.14-5.86-6.69l2.12-0.44c0.96,0.53,1.85,1.14,2.64,1.81
                                        c0.8,0.68,1.53,1.57,2.2,2.69c0.67,1.12,1.17,2.48,1.51,4.1c0.4,1.91,0.43,3.67,0.09,5.3c-0.33,1.63-0.95,3.05-1.83,4.26
                                        c-0.89,1.21-1.98,2.22-3.28,3.01c-1.3,0.79-2.7,1.35-4.19,1.66c-1.28,0.27-2.51,0.35-3.68,0.26c-1.17-0.1-2.24-0.33-3.21-0.71
                                        c-0.97-0.38-1.9-0.87-2.8-1.48c-1.47-1.06-2.57-2.25-3.3-3.58c-0.73-1.32-1.26-2.8-1.6-4.44c-0.34-1.61-0.43-3.43-0.29-5.45
                                        c0.02-0.7,0-1.21-0.07-1.53c-0.12-0.58-0.59-0.94-1.41-1.09l-0.1-0.46L121.25,369.07z" />
                    <path class="st2"
                        d="M111.45,355.71l19.65-9.86c1.01-0.53,1.68-1.09,2.01-1.71s0.53-1.35,0.59-2.2l0.46-0.04l1.06,11.15
                                        l-0.46,0.04c-0.23-1.52-0.79-2.23-1.66-2.15c-0.14,0.01-0.33,0.06-0.58,0.13c-0.25,0.07-0.51,0.16-0.78,0.27
                                        c-0.28,0.11-0.44,0.17-0.51,0.2l-4.83,2.44l0.67,7.03l4.98,1.22c0.6,0.16,1.13,0.22,1.6,0.17c0.73-0.07,1.19-0.33,1.4-0.78
                                        c0.21-0.45,0.33-0.97,0.36-1.57l0.46-0.04l0.67,7.06l-0.46,0.04c-0.15-0.73-0.55-1.38-1.23-1.96c-0.68-0.58-1.86-1.09-3.57-1.53
                                        l-19.57-4.88L111.45,355.71z M125.46,360.63l-0.56-5.87l-7.65,3.79L125.46,360.63z" />
                    <path class="st2" d="M110.48,343.23l0.34-12.92c0.06-2.11,0.43-3.99,1.12-5.65c0.69-1.66,1.63-3.03,2.8-4.13
                                        c1.18-1.09,2.5-1.9,3.98-2.43c1.48-0.53,3.03-0.77,4.66-0.73c1.59,0.04,3.06,0.35,4.42,0.91c1.36,0.57,2.56,1.4,3.59,2.49
                                        c1.03,1.1,1.83,2.46,2.38,4.08c0.55,1.62,0.8,3.44,0.75,5.45l-0.35,13.54l-0.47-0.01c0.03-1.24-0.22-2.05-0.77-2.42
                                        s-1.28-0.57-2.21-0.6l-16.57-0.43c-0.88-0.02-1.63,0.12-2.24,0.42c-0.61,0.31-0.94,1.06-0.97,2.25l0,0.18L110.48,343.23z
                                        M112.29,335.09l17.35,0.46c0.84,0.02,1.5-0.05,2-0.23c0.5-0.17,0.87-0.52,1.11-1.02c0.24-0.51,0.38-1.28,0.41-2.32
                                        c0.02-0.93-0.02-1.77-0.12-2.51s-0.33-1.44-0.68-2.11c-0.53-0.98-1.28-1.79-2.24-2.44c-0.96-0.65-2.02-1.14-3.18-1.46
                                        c-1.16-0.32-2.36-0.5-3.61-0.53c-1.29-0.03-2.57,0.1-3.86,0.41c-1.29,0.31-2.48,0.84-3.58,1.58c-1.1,0.75-2,1.77-2.7,3.08
                                        c-0.7,1.3-1.07,2.9-1.12,4.8C112.06,333.48,112.13,334.24,112.29,335.09z" />
                    <path class="st2"
                        d="M113.72,298.52l5.29,0.51l-0.06,0.46c-0.91,0.09-1.67,0.24-2.28,0.42s-1.1,0.49-1.46,0.93
                                        s-0.6,1.07-0.71,1.9l-0.63,4.73l9.87,1.31l0.5-3.77c0.15-1.12,0.01-1.98-0.42-2.56c-0.43-0.58-1.13-0.98-2.1-1.19l0.06-0.46
                                        l6.89,0.91l-0.06,0.46c-1.06,0.02-1.81,0.32-2.24,0.89c-0.43,0.57-0.71,1.28-0.82,2.13l-0.5,3.77l6.76,0.9
                                        c1.96,0.26,3.07-0.62,3.33-2.63l0.19-1.43c0.13-0.97,0.11-1.77-0.07-2.41c-0.18-0.64-0.55-1.21-1.12-1.69s-1.4-0.96-2.5-1.42
                                        l0.06-0.46l5.6,1.1l-2.34,17.67l-0.46-0.06c0.16-1.23-0.01-2.06-0.52-2.5c-0.51-0.43-1.22-0.71-2.12-0.83l-16.46-2.18
                                        c-0.86-0.11-1.61-0.05-2.25,0.2c-0.64,0.25-1.04,0.97-1.2,2.16l-0.02,0.16l-0.46-0.06L113.72,298.52z" />
                    <path class="st2" d="M121.11,266.98l0.45,0.11c-0.11,0.61-0.16,1.13-0.15,1.54c0.01,0.42,0.18,0.8,0.5,1.16
                                        c0.32,0.36,0.88,0.6,1.67,0.72l15.74,2.65c1.1,0.18,1.94,0.23,2.51,0.15c0.57-0.08,0.98-0.26,1.24-0.53
                                        c0.26-0.27,0.55-0.73,0.88-1.38l0.45,0.11l-2.67,10.52l-0.45-0.11c0.2-0.89,0.14-1.64-0.18-2.25c-0.32-0.62-1.15-1.04-2.5-1.27
                                        l-14.91-2.59l-0.01,0.06l16.54,12.16l-0.14,0.54l-19.78,3.2l-0.02,0.06l12.55,4.26c1.23,0.42,2.22,0.58,2.96,0.47
                                        c0.74-0.11,1.27-0.37,1.59-0.78c0.32-0.41,0.58-0.92,0.77-1.52l0.45,0.11l-1.97,7.78l-0.45-0.11c0.19-1-0.02-1.85-0.62-2.53
                                        c-0.6-0.69-1.72-1.33-3.38-1.94l-14.14-5.23c-1.79,0.57-3.03,1.66-3.71,3.27l-0.45-0.12l2.1-8.28l16.79-2.8l-13.55-9.98
                                        L121.11,266.98z" />
                    <path class="st2" d="M122.5,265.45l-0.41-0.15l3.78-10.45l0.44,0.16c-0.42,1.16-0.42,2-0.02,2.53c0.41,0.53,1.04,0.95,1.91,1.26
                                        l15.64,5.66c0.5,0.18,0.96,0.29,1.38,0.35c0.43,0.05,0.87-0.06,1.33-0.33s0.83-0.81,1.12-1.6l0.04-0.12l0.44,0.16l-3.78,10.45
                                        l-0.44-0.16c0.42-1.15,0.42-1.99,0.02-2.52c-0.4-0.53-1.03-0.96-1.9-1.27l-15.64-5.66c-1.03-0.37-1.85-0.42-2.47-0.14
                                        C123.32,263.9,122.84,264.51,122.5,265.45z" />
                    <path class="st2"
                        d="M131.25,241.86l21.94,1.33c1.13,0.05,2-0.11,2.6-0.47c0.6-0.36,1.13-0.9,1.61-1.61l0.42,0.19l-4.67,10.18
                                        l-0.42-0.19c0.56-1.43,0.44-2.32-0.36-2.69c-0.13-0.06-0.31-0.12-0.56-0.18c-0.25-0.06-0.52-0.11-0.81-0.16
                                        c-0.29-0.04-0.47-0.07-0.54-0.08l-5.4-0.31l-2.95,6.42l3.7,3.55c0.44,0.44,0.87,0.75,1.3,0.95c0.66,0.3,1.2,0.31,1.61,0.03
                                        c0.41-0.28,0.77-0.68,1.1-1.17l0.42,0.2l-2.96,6.45l-0.42-0.19c0.24-0.7,0.21-1.47-0.08-2.32c-0.29-0.84-1.06-1.88-2.32-3.11
                                        l-14.48-14.03L131.25,241.86z M140.9,253.14l2.46-5.35l-8.53-0.56L140.9,253.14z" />
                    <path class="st2" d="M141.61,221.83l7.26-10.69c1.18-1.74,2.52-3.13,3.99-4.15c1.48-1.02,3.01-1.67,4.59-1.96
                                        c1.58-0.29,3.14-0.25,4.67,0.1c1.53,0.35,2.97,0.99,4.32,1.9c1.31,0.89,2.39,1.94,3.23,3.15c0.84,1.21,1.4,2.55,1.67,4.04
                                        c0.28,1.48,0.21,3.05-0.2,4.72c-0.41,1.66-1.18,3.33-2.31,4.99l-7.61,11.21l-0.39-0.26c0.7-1.03,0.92-1.84,0.66-2.45
                                        s-0.77-1.17-1.54-1.7l-13.71-9.31c-0.73-0.49-1.43-0.78-2.11-0.85c-0.68-0.07-1.36,0.38-2.03,1.38l-0.1,0.15L141.61,221.83z
                                        M147.52,215.95l14.36,9.75c0.69,0.47,1.29,0.77,1.81,0.89c0.51,0.12,1.01,0.04,1.49-0.26c0.48-0.3,1.01-0.87,1.59-1.73
                                        c0.52-0.77,0.94-1.5,1.25-2.18c0.31-0.68,0.5-1.39,0.57-2.14c0.08-1.11-0.11-2.2-0.56-3.27c-0.46-1.07-1.09-2.05-1.89-2.94
                                        c-0.8-0.9-1.72-1.69-2.75-2.39c-1.07-0.72-2.22-1.3-3.47-1.73s-2.54-0.63-3.87-0.6c-1.33,0.03-2.64,0.41-3.94,1.13
                                        c-1.29,0.72-2.47,1.86-3.54,3.43C148.2,214.47,147.85,215.15,147.52,215.95z" />
                    <path class="st2" d="M168.45,185.94l4.18,3.28l-0.3,0.36c-0.82-0.41-1.53-0.7-2.14-0.88c-0.61-0.17-1.19-0.17-1.74,0
                                        c-0.54,0.17-1.08,0.57-1.62,1.21l-3.08,3.64l7.61,6.42l2.46-2.91c0.73-0.87,1.07-1.66,1.02-2.38c-0.05-0.72-0.42-1.43-1.12-2.13
                                        l0.3-0.36l5.31,4.48l-0.3,0.36c-0.91-0.55-1.7-0.71-2.37-0.46c-0.67,0.25-1.28,0.7-1.83,1.35l-2.45,2.91l5.21,4.4
                                        c1.51,1.27,2.92,1.13,4.23-0.42l0.93-1.1c0.63-0.74,1.04-1.43,1.24-2.07c0.2-0.64,0.19-1.31-0.03-2.02
                                        c-0.22-0.71-0.67-1.56-1.34-2.55l0.3-0.36l4.12,3.94l-11.49,13.62l-0.36-0.3c0.8-0.95,1.1-1.74,0.91-2.38
                                        c-0.19-0.64-0.64-1.26-1.34-1.84l-12.69-10.71c-0.66-0.56-1.33-0.91-2-1.04c-0.67-0.13-1.4,0.26-2.17,1.17l-0.1,0.12l-0.36-0.3
                                        L168.45,185.94z" />
                    <path class="st2" d="M189.07,165.96l3.73,3.79l-0.34,0.31c-0.76-0.51-1.43-0.89-2.01-1.14c-0.58-0.25-1.16-0.33-1.72-0.23
                                        s-1.15,0.43-1.77,0.99l-3.52,3.22l6.72,7.35l2.81-2.57c0.84-0.77,1.28-1.51,1.32-2.23s-0.24-1.48-0.84-2.26l0.34-0.31l4.69,5.13
                                        l-0.34,0.31c-0.83-0.67-1.59-0.92-2.29-0.76c-0.7,0.16-1.36,0.52-1.99,1.1l-2.81,2.57l4.6,5.03c1.33,1.46,2.75,1.5,4.25,0.13
                                        l1.07-0.98c0.72-0.66,1.22-1.29,1.5-1.89s0.36-1.28,0.23-2.01c-0.13-0.73-0.46-1.63-1-2.7l0.34-0.31l3.58,4.44l-13.15,12.03
                                        l-0.31-0.34c0.91-0.84,1.32-1.59,1.21-2.25c-0.11-0.66-0.47-1.33-1.09-2l-11.21-12.25c-0.59-0.64-1.2-1.07-1.85-1.29
                                        c-0.65-0.22-1.42,0.08-2.3,0.88l-0.12,0.11l-0.32-0.34L189.07,165.96z" />
                    <path class="st2" d="M204.85,161.01l-0.49,0.38c-1.25-0.9-2.5-1.41-3.76-1.5c-1.26-0.1-2.41,0.26-3.46,1.08
                                        c-0.51,0.4-0.91,0.87-1.17,1.41c-0.26,0.54-0.37,1.1-0.32,1.68c0.05,0.58,0.27,1.12,0.66,1.62c0.23,0.29,0.49,0.53,0.81,0.74
                                        c0.31,0.2,0.82,0.36,1.5,0.48s1.6,0.12,2.75,0.02c1.27-0.13,2.05-0.2,2.35-0.2c1.58-0.16,2.94-0.22,4.06-0.17
                                        c1.12,0.05,2.12,0.27,3,0.66c0.88,0.39,1.64,1.01,2.3,1.86c0.61,0.78,1.01,1.6,1.21,2.48c0.2,0.87,0.2,1.76,0.02,2.66
                                        s-0.56,1.78-1.12,2.63c-0.56,0.85-1.29,1.63-2.19,2.33c-0.92,0.72-2.12,1.38-3.6,1.97c-0.16,0.07-0.36,0.17-0.6,0.29
                                        c-0.24,0.12-0.44,0.24-0.6,0.37c-0.4,0.31-0.52,0.74-0.38,1.29l-0.44,0.35l-4-5.37l0.49-0.38c0.94,0.87,1.93,1.44,2.98,1.69
                                        c1.05,0.26,2.02,0.28,2.92,0.06c0.9-0.22,1.67-0.58,2.31-1.08c0.94-0.73,1.51-1.6,1.71-2.6c0.2-1,0.01-1.88-0.58-2.63
                                        c-0.4-0.51-0.87-0.85-1.42-1.02c-0.55-0.18-1.23-0.25-2.03-0.21c-0.8,0.03-2.27,0.15-4.41,0.35c-1.13,0.1-2.14,0.12-3.03,0.08
                                        c-0.88-0.04-1.64-0.16-2.26-0.35c-0.62-0.19-1.16-0.44-1.61-0.77c-0.45-0.32-0.86-0.72-1.23-1.2c-0.71-0.91-1.18-2-1.41-3.25
                                        c-0.22-1.25-0.12-2.5,0.3-3.73c0.42-1.23,1.19-2.28,2.29-3.14c0.51-0.4,1.05-0.74,1.6-1c0.14-0.08,0.34-0.18,0.59-0.29
                                        c0.25-0.11,0.47-0.2,0.64-0.28c0.42-0.22,0.73-0.41,0.91-0.55c0.29-0.22,0.45-0.43,0.49-0.61c0.04-0.18,0.04-0.4,0.01-0.66
                                        l0.39-0.31L204.85,161.01z" />
                    <path class="st2"
                        d="M225.71,148.06l-0.39,0.25c-1.4-1.05-2.99-1.62-4.77-1.71c-1.77-0.08-3.48,0.39-5.11,1.43
                                        c-1.26,0.8-2.14,1.75-2.64,2.82c-0.49,1.08-0.69,2.21-0.58,3.41c0.11,1.2,0.41,2.38,0.89,3.54c0.49,1.17,1.1,2.33,1.84,3.5
                                        c1.84,2.9,3.83,4.75,5.97,5.57s4.18,0.61,6.13-0.63c1.4-0.89,2.14-1.66,2.23-2.3c0.09-0.64-0.13-1.37-0.65-2.18l-1.47-2.31
                                        c-0.29-0.46-0.59-0.85-0.89-1.15s-0.69-0.51-1.18-0.61c-0.49-0.1-1.05,0.03-1.69,0.38l-0.27-0.42l8.32-5.29l0.27,0.42
                                        c-1.11,0.94-1.25,2.07-0.4,3.4l3.1,4.87c-1.51,2.33-3.61,4.36-6.3,6.07c-1.08,0.69-2.11,1.24-3.09,1.65
                                        c-0.98,0.41-1.89,0.7-2.75,0.87c-0.86,0.17-1.62,0.25-2.29,0.24c-0.67-0.01-1.33-0.08-2-0.21c-0.91-0.18-1.82-0.48-2.72-0.9
                                        c-0.9-0.42-1.78-1.01-2.67-1.77c-0.88-0.76-1.68-1.69-2.39-2.82c-0.96-1.51-1.57-3.06-1.83-4.65c-0.26-1.59-0.19-3.16,0.21-4.7
                                        c0.4-1.54,1.08-2.96,2.04-4.25s2.15-2.38,3.56-3.28c0.79-0.5,1.51-0.89,2.16-1.15c0.65-0.26,1.77-0.64,3.36-1.15
                                        c0.53-0.13,1.04-0.36,1.55-0.68c0.53-0.34,0.66-0.92,0.38-1.73l0.39-0.25L225.71,148.06z" />
                    <path class="st2" d="M238.94,148.03l-0.68,0.33l3.28,6.83c0.39,0.81,0.8,1.36,1.24,1.65c0.43,0.29,0.85,0.4,1.25,0.34
                                        c0.4-0.06,0.9-0.21,1.48-0.47l0.19,0.39l-10.01,4.81l-0.2-0.42c1.12-0.54,1.72-1.13,1.79-1.79c0.08-0.66-0.08-1.4-0.48-2.23
                                        l-7.19-14.97c-0.49-1.02-1.05-1.65-1.66-1.87c-0.62-0.22-1.39-0.11-2.32,0.33l-0.2-0.42l11.06-5.31
                                        c1.46-0.7,2.84-1.09,4.16-1.16c1.32-0.07,2.47,0.17,3.44,0.72c0.98,0.55,1.73,1.37,2.24,2.44c0.42,0.87,0.61,1.73,0.56,2.58
                                        c-0.04,0.85-0.27,1.65-0.68,2.38c-0.41,0.73-0.95,1.4-1.6,2c1.3,0.15,2.79,0.8,4.5,1.95l4.63,3.11
                                        c0.79,0.54,1.47,0.92,2.03,1.16c0.56,0.23,1.02,0.35,1.36,0.35c0.34,0,0.69-0.06,1.04-0.17l0.2,0.42l-6.88,3.3
                                        c-1.25-0.89-2.22-1.6-2.92-2.15c-2.21-1.69-3.79-2.84-4.72-3.46c-0.94-0.62-1.78-0.99-2.52-1.11
                                        C240.6,147.48,239.8,147.62,238.94,148.03z M234.53,137.64l-1.16,0.56l4.31,8.98l0.97-0.47c1.66-0.8,2.72-1.8,3.17-3
                                        c0.46-1.2,0.32-2.55-0.4-4.05c-0.45-0.93-1-1.63-1.67-2.1c-0.67-0.47-1.45-0.7-2.33-0.69
                                        C236.55,136.88,235.59,137.13,234.53,137.64z" />
                    <path class="st2" d="M248.72,130.19l-0.16-0.41l10.38-3.95l0.17,0.44c-1.15,0.44-1.79,0.98-1.93,1.64s-0.04,1.41,0.29,2.27
                                        l5.92,15.55c0.19,0.49,0.4,0.92,0.64,1.27c0.24,0.36,0.61,0.62,1.12,0.79c0.51,0.17,1.15,0.1,1.94-0.2l0.12-0.05l0.17,0.44
                                        l-10.38,3.95l-0.17-0.44c1.14-0.43,1.78-0.98,1.92-1.63c0.14-0.65,0.05-1.41-0.28-2.27l-5.91-15.55
                                        c-0.39-1.02-0.89-1.68-1.51-1.96C250.42,129.8,249.65,129.84,248.72,130.19z" />
                    <path class="st2"
                        d="M288.58,117.26l0.12,0.45c-0.59,0.2-1.06,0.41-1.42,0.63c-0.36,0.21-0.61,0.55-0.77,1.01
                                        s-0.09,1.06,0.19,1.81l5.41,15.02c0.38,1.05,0.75,1.8,1.1,2.26c0.35,0.46,0.71,0.73,1.07,0.82c0.36,0.09,0.91,0.12,1.63,0.09
                                        l0.12,0.45l-10.47,2.84l-0.12-0.45c0.87-0.26,1.5-0.68,1.88-1.26s0.34-1.51-0.12-2.8l-5.06-14.26l-0.06,0.02l-2.48,20.37
                                        l-0.54,0.15l-12.49-15.67l-0.06,0.02l2.45,13.02c0.24,1.28,0.58,2.22,1.04,2.81c0.46,0.59,0.95,0.93,1.46,1
                                        c0.51,0.08,1.08,0.05,1.7-0.07l0.12,0.45l-7.75,2.1l-0.12-0.45c0.96-0.33,1.6-0.92,1.9-1.78c0.31-0.86,0.32-2.16,0.04-3.89
                                        l-2.38-14.89c-1.38-1.28-2.93-1.83-4.67-1.64l-0.12-0.45l8.24-2.23l10.67,13.26l2.05-16.71L288.58,117.26z" />
                    <path class="st2" d="M304.55,114.87l10.59,19.27c0.56,0.99,1.16,1.63,1.78,1.95s1.37,0.48,2.22,0.51l0.06,0.46l-11.11,1.48
                                        l-0.06-0.46c1.5-0.29,2.2-0.87,2.08-1.74c-0.02-0.14-0.07-0.33-0.15-0.57c-0.08-0.24-0.18-0.5-0.3-0.77
                                        c-0.12-0.27-0.19-0.44-0.22-0.5l-2.62-4.73l-7,0.93l-1.03,5.02c-0.14,0.6-0.17,1.14-0.11,1.61c0.1,0.72,0.37,1.18,0.83,1.37
                                        s0.98,0.29,1.58,0.3l0.06,0.46l-7.03,0.94l-0.06-0.46c0.72-0.17,1.36-0.61,1.92-1.3c0.56-0.7,1.02-1.9,1.4-3.62l4.14-19.74
                                        L304.55,114.87z M300.16,129.05l5.84-0.78l-4.08-7.51L300.16,129.05z" />
                    <path class="st2" d="M358.54,125.37l11.05,1.65l1.04-6.97c0.13-0.85,0.08-1.6-0.15-2.24c-0.23-0.65-0.93-1.06-2.12-1.24
                                        l-0.16-0.02l0.07-0.46l10.99,1.65l-0.07,0.46c-1.23-0.18-2.06-0.02-2.49,0.49c-0.43,0.51-0.72,1.23-0.86,2.15l-2.46,16.42
                                        c-0.08,0.51-0.1,0.98-0.06,1.41c0.03,0.43,0.22,0.85,0.58,1.24c0.35,0.39,0.94,0.65,1.77,0.78l0.16,0.02l-0.07,0.46l-10.99-1.65
                                        l0.07-0.46c1.24,0.19,2.07,0.03,2.5-0.47s0.71-1.21,0.84-2.12l1.18-7.89l-11.05-1.66l-1.18,7.89c-0.08,0.52-0.1,1-0.07,1.43
                                        c0.03,0.43,0.23,0.84,0.58,1.23c0.35,0.39,0.94,0.65,1.77,0.77l0.16,0.02l-0.07,0.46l-10.99-1.65l0.07-0.46
                                        c1.23,0.18,2.06,0.03,2.49-0.47c0.43-0.5,0.72-1.2,0.85-2.12l2.46-16.42c0.13-0.86,0.08-1.61-0.16-2.25
                                        c-0.24-0.64-0.94-1.05-2.11-1.23l-0.16-0.02l0.07-0.46L363,115.3l-0.07,0.46c-1.21-0.18-2.03-0.02-2.47,0.48
                                        c-0.44,0.5-0.74,1.22-0.88,2.15L358.54,125.37z" />
                    <path class="st2" d="M382.26,119.21l0.11-0.42l10.76,2.76l-0.12,0.45c-1.19-0.31-2.03-0.23-2.52,0.23
                                        c-0.49,0.46-0.85,1.13-1.08,2.03l-4.13,16.11c-0.13,0.51-0.2,0.98-0.21,1.41c-0.01,0.43,0.14,0.86,0.46,1.29s0.88,0.75,1.7,0.96
                                        l0.12,0.03l-0.12,0.45l-10.76-2.76l0.12-0.45c1.18,0.3,2.02,0.23,2.51-0.22c0.49-0.45,0.85-1.12,1.08-2.01l4.13-16.11
                                        c0.27-1.06,0.24-1.89-0.1-2.48C383.88,119.88,383.22,119.46,382.26,119.21z" />
                    <path class="st2" d="M407.1,132.25l-0.59-0.2c0.07-1.54-0.21-2.86-0.82-3.97c-0.61-1.11-1.55-1.87-2.8-2.29
                                        c-0.62-0.21-1.23-0.27-1.82-0.2s-1.12,0.3-1.58,0.66c-0.46,0.36-0.78,0.84-0.98,1.44c-0.12,0.35-0.17,0.71-0.17,1.08
                                        c0,0.38,0.15,0.88,0.43,1.52s0.78,1.41,1.5,2.3c0.81,0.99,1.3,1.6,1.46,1.85c1.01,1.23,1.8,2.33,2.38,3.3
                                        c0.58,0.96,0.95,1.92,1.1,2.87s0.06,1.93-0.28,2.94c-0.31,0.94-0.78,1.73-1.4,2.37c-0.62,0.65-1.35,1.14-2.21,1.48
                                        c-0.85,0.34-1.79,0.51-2.81,0.51c-1.02,0-2.07-0.18-3.15-0.54c-1.11-0.37-2.31-1.01-3.62-1.92c-0.15-0.09-0.34-0.21-0.57-0.34
                                        c-0.23-0.13-0.44-0.23-0.64-0.3c-0.48-0.16-0.91-0.03-1.29,0.4l-0.53-0.18l2.27-6.3l0.59,0.2c-0.21,1.26-0.13,2.4,0.23,3.42
                                        c0.37,1.02,0.89,1.84,1.57,2.47c0.68,0.63,1.41,1.08,2.18,1.33c1.13,0.38,2.16,0.38,3.11-0.01c0.95-0.38,1.57-1.03,1.88-1.93
                                        c0.2-0.61,0.23-1.19,0.07-1.75c-0.16-0.56-0.47-1.16-0.94-1.81s-1.38-1.81-2.72-3.49c-0.71-0.89-1.28-1.72-1.73-2.48
                                        c-0.45-0.76-0.77-1.45-0.95-2.08s-0.27-1.21-0.25-1.76c0.02-0.55,0.13-1.11,0.32-1.68c0.37-1.1,1.01-2.09,1.94-2.96
                                        c0.92-0.88,2.01-1.48,3.28-1.81c1.26-0.33,2.56-0.27,3.89,0.18c0.62,0.21,1.19,0.47,1.72,0.78c0.15,0.07,0.33,0.18,0.57,0.33
                                        c0.23,0.15,0.43,0.28,0.59,0.38c0.42,0.23,0.74,0.38,0.96,0.46c0.34,0.12,0.6,0.14,0.78,0.08c0.17-0.07,0.36-0.19,0.55-0.36
                                        l0.47,0.16L407.1,132.25z" />
                    <path class="st2" d="M416.21,129.4l15.06,6.79c0.69,0.31,1.31,0.48,1.85,0.51l0.42,0.19l-2.17,5.13l-0.41-0.19
                                        c0.46-1.58,0.52-2.69,0.19-3.33c-0.33-0.64-0.87-1.12-1.61-1.46l-4.02-1.81l-7.68,17.03c-0.26,0.57-0.41,1.08-0.46,1.53
                                        s0.06,0.89,0.34,1.32c0.28,0.43,0.79,0.81,1.54,1.15l-0.19,0.43l-10.14-4.57l0.19-0.42c1.12,0.51,1.96,0.58,2.52,0.22
                                        c0.56-0.36,1.03-0.96,1.41-1.8l7.68-17.03l-4.03-1.81c-0.68-0.31-1.34-0.34-1.96-0.1c-0.62,0.24-1.46,0.98-2.52,2.23l-0.45-0.2
                                        l2.4-5.02l0.43,0.19C414.98,128.74,415.52,129.09,416.21,129.4z" />
                    <path class="st2"
                        d="M431.46,149.3c0.84-1.37,1.87-2.54,3.11-3.51c1.24-0.97,2.6-1.65,4.09-2.04c1.49-0.39,3.05-0.45,4.67-0.19
                                        c1.62,0.27,3.26,0.9,4.9,1.91c1.66,1.01,2.98,2.18,3.96,3.51c0.98,1.33,1.63,2.75,1.96,4.25c0.33,1.51,0.34,3.03,0.05,4.56
                                        c-0.3,1.54-0.87,3.01-1.73,4.42c-0.85,1.4-1.88,2.58-3.09,3.54c-1.21,0.96-2.54,1.65-3.99,2.07c-1.46,0.42-3.02,0.5-4.68,0.24
                                        c-1.67-0.26-3.34-0.9-5.02-1.93c-1.81-1.1-3.2-2.37-4.17-3.81c-0.97-1.44-1.57-2.93-1.81-4.47s-0.18-3.04,0.15-4.52
                                        C430.19,151.85,430.72,150.51,431.46,149.3z M436.42,151.96c-0.84,1.37-1.56,2.79-2.17,4.25s-0.83,3.03-0.68,4.71
                                        c0.15,1.68,1.09,3.05,2.82,4.1c2.42,1.48,4.57,1.44,6.44-0.1c1.87-1.54,3.43-3.33,4.67-5.36c0.97-1.58,1.73-3.15,2.3-4.7
                                        c0.57-1.55,0.73-3.08,0.49-4.58c-0.25-1.5-1.14-2.72-2.69-3.66c-1.74-1.06-3.37-1.29-4.91-0.69c-1.54,0.6-2.79,1.47-3.77,2.61
                                        S437.11,150.83,436.42,151.96z M451.35,138.07l5.54,3.38l-0.07,0.11l-11.24,0.48l-0.73-0.44L451.35,138.07z" />
                    <path class="st2" d="M461.47,170.13l-0.59-0.47l-4.76,5.9c-0.57,0.7-0.88,1.31-0.96,1.82c-0.07,0.51,0,0.94,0.23,1.28
                                        c0.22,0.34,0.58,0.72,1.06,1.14l-0.27,0.34l-8.65-6.98l0.29-0.36c0.97,0.78,1.76,1.06,2.39,0.85c0.62-0.21,1.23-0.68,1.81-1.4
                                        l10.43-12.92c0.71-0.88,1.04-1.65,0.97-2.3c-0.07-0.65-0.5-1.3-1.3-1.95l0.29-0.36l9.55,7.7c1.26,1.01,2.2,2.1,2.84,3.26
                                        c0.63,1.16,0.91,2.3,0.83,3.42c-0.08,1.12-0.49,2.15-1.24,3.07c-0.61,0.75-1.3,1.29-2.09,1.62c-0.79,0.33-1.6,0.46-2.44,0.41
                                        c-0.84-0.06-1.67-0.25-2.49-0.58c0.42,1.23,0.48,2.87,0.18,4.9l-0.82,5.52c-0.14,0.95-0.2,1.72-0.17,2.33
                                        c0.03,0.61,0.12,1.07,0.27,1.38c0.15,0.31,0.35,0.6,0.6,0.87l-0.29,0.36l-5.93-4.79c0.27-1.51,0.5-2.69,0.69-3.56
                                        c0.57-2.72,0.94-4.64,1.09-5.75c0.16-1.11,0.13-2.03-0.08-2.75C462.69,171.39,462.21,170.73,461.47,170.13z M468.97,161.69
                                        l-1-0.81l-6.25,7.75l0.84,0.67c1.43,1.16,2.79,1.68,4.07,1.58c1.28-0.1,2.44-0.8,3.49-2.1c0.65-0.8,1.04-1.61,1.17-2.41
                                        c0.13-0.81,0.01-1.61-0.38-2.4C470.52,163.18,469.88,162.42,468.97,161.69z" />
                    <path class="st2" d="M483.74,173.09l0.3-0.31l7.95,7.76l-0.33,0.33c-0.88-0.86-1.65-1.21-2.3-1.06
                                        c-0.65,0.15-1.3,0.56-1.94,1.22l-11.63,11.9c-0.37,0.38-0.66,0.75-0.89,1.11c-0.22,0.37-0.31,0.81-0.25,1.34s0.39,1.09,1,1.68
                                        l0.09,0.09l-0.33,0.33l-7.95-7.76l0.33-0.33c0.87,0.85,1.63,1.21,2.28,1.06c0.65-0.14,1.3-0.55,1.94-1.21l11.63-11.9
                                        c0.76-0.78,1.15-1.51,1.15-2.2C484.81,174.47,484.46,173.78,483.74,173.09z" />
                    <path class="st2"
                        d="M502.51,204.75l-0.37-0.43c0.76-0.88,1.32-1.79,1.68-2.74c0.36-0.95,0.54-1.88,0.53-2.78
                                        c0-0.9-0.17-1.78-0.5-2.63c-0.33-0.85-0.81-1.64-1.44-2.37c-0.83-0.98-1.78-1.66-2.83-2.05s-2.06-0.52-3.02-0.39
                                        c-1.19,0.19-2.35,0.59-3.46,1.21c-1.12,0.62-2.21,1.39-3.29,2.31c-1.96,1.67-3.23,3.35-3.82,5.04c-0.59,1.69-0.7,3.21-0.34,4.57
                                        c0.36,1.36,0.94,2.5,1.74,3.44c1.93,2.26,4.72,3.27,8.36,3.04l-1.65,1.41c-1.1,0-2.17-0.11-3.19-0.31
                                        c-1.02-0.21-2.1-0.64-3.23-1.3c-1.13-0.66-2.22-1.61-3.3-2.86c-1.27-1.48-2.14-3.01-2.63-4.6c-0.49-1.59-0.64-3.13-0.44-4.62
                                        c0.19-1.49,0.67-2.9,1.43-4.22c0.76-1.32,1.72-2.48,2.87-3.47c0.99-0.85,2.03-1.52,3.1-2s2.12-0.79,3.16-0.93
                                        c1.03-0.14,2.09-0.15,3.17-0.05c1.8,0.22,3.34,0.74,4.61,1.55c1.28,0.81,2.46,1.85,3.54,3.12c1.07,1.25,2.03,2.8,2.88,4.63
                                        c0.32,0.62,0.59,1.06,0.8,1.3c0.38,0.45,0.97,0.54,1.76,0.27l0.3,0.35L502.51,204.75z" />
                    <path class="st2" d="M519.02,214.02l-12.73,17.92c-0.64,0.94-0.97,1.75-0.97,2.45c-0.01,0.7,0.16,1.44,0.51,2.22l-0.39,0.26
                                        l-6.17-9.35l0.39-0.26c0.92,1.23,1.74,1.6,2.47,1.12c0.12-0.08,0.27-0.2,0.45-0.38c0.18-0.18,0.37-0.38,0.57-0.6
                                        c0.19-0.22,0.31-0.36,0.35-0.42l3.12-4.42l-3.89-5.9l-4.97,1.26c-0.6,0.14-1.1,0.34-1.49,0.6c-0.61,0.4-0.9,0.85-0.88,1.35
                                        c0.03,0.5,0.17,1.01,0.42,1.55l-0.39,0.26l-3.91-5.92l0.39-0.26c0.47,0.58,1.14,0.96,2.01,1.16s2.16,0.09,3.87-0.32l19.57-4.87
                                        L519.02,214.02z M504.34,216.25l3.25,4.92l4.98-6.94L504.34,216.25z" />
                    <path class="st2" d="M532.95,238.23l4.93,11.95c0.81,1.95,1.23,3.82,1.27,5.62s-0.26,3.43-0.89,4.91
                                        c-0.63,1.48-1.52,2.76-2.65,3.84c-1.14,1.08-2.46,1.94-3.97,2.56c-1.47,0.61-2.94,0.93-4.41,0.96c-1.47,0.03-2.9-0.24-4.29-0.83
                                        s-2.67-1.5-3.83-2.76c-1.16-1.26-2.13-2.82-2.9-4.67l-5.17-12.52l0.43-0.18c0.47,1.15,1.03,1.78,1.68,1.9
                                        c0.65,0.12,1.4,0,2.27-0.35l15.32-6.32c0.81-0.34,1.44-0.77,1.87-1.3c0.44-0.53,0.43-1.35-0.03-2.45l-0.07-0.16L532.95,238.23z
                                        M534.61,246.4l-16.05,6.62c-0.77,0.32-1.35,0.66-1.74,1.02s-0.58,0.82-0.6,1.39c-0.02,0.56,0.17,1.32,0.57,2.28
                                        c0.35,0.86,0.73,1.61,1.12,2.25c0.4,0.63,0.89,1.18,1.47,1.65c0.88,0.68,1.9,1.12,3.04,1.33c1.14,0.21,2.31,0.22,3.5,0.04
                                        c1.19-0.18,2.36-0.51,3.51-0.98c1.19-0.49,2.31-1.14,3.36-1.94c1.05-0.8,1.93-1.77,2.63-2.9c0.7-1.13,1.11-2.43,1.22-3.91
                                        c0.11-1.48-0.2-3.09-0.92-4.84C535.47,247.78,535.1,247.12,534.61,246.4z" />
                    <path class="st2" d="M548.78,283.01l-5.06,1.62l-0.12-0.45c0.8-0.45,1.44-0.88,1.93-1.28s0.81-0.89,0.98-1.43
                                        c0.16-0.55,0.13-1.22-0.09-2.03l-1.29-4.59l-9.59,2.7l1.03,3.66c0.31,1.09,0.77,1.82,1.4,2.18s1.43,0.45,2.4,0.27l0.13,0.45
                                        l-6.69,1.88l-0.13-0.45c0.97-0.44,1.54-1.01,1.71-1.7s0.14-1.45-0.09-2.28l-1.03-3.66l-6.57,1.85c-1.9,0.53-2.58,1.78-2.02,3.74
                                        l0.39,1.39c0.26,0.94,0.6,1.67,1.02,2.19c0.41,0.52,0.98,0.89,1.69,1.11c0.71,0.22,1.67,0.32,2.86,0.32l0.13,0.45l-5.58,1.2
                                        L521.35,273l0.45-0.13c0.33,1.2,0.83,1.89,1.46,2.09c0.64,0.2,1.4,0.17,2.28-0.07l15.98-4.5c0.84-0.24,1.5-0.59,1.99-1.08
                                        s0.57-1.3,0.25-2.45l-0.04-0.16l0.45-0.12L548.78,283.01z" />
                    <path class="st2"
                        d="M546.76,322.83l-0.06-0.56c1.12-0.3,2.1-0.74,2.93-1.32c0.83-0.58,1.5-1.25,2-2
                                        c0.5-0.75,0.86-1.57,1.06-2.46c0.2-0.89,0.25-1.81,0.14-2.77c-0.15-1.28-0.54-2.37-1.2-3.28c-0.65-0.91-1.42-1.58-2.29-2.01
                                        c-1.09-0.51-2.28-0.83-3.54-0.94c-1.27-0.12-2.61-0.09-4.02,0.07c-2.56,0.29-4.55,0.97-5.99,2.03
                                        c-1.43,1.07-2.38,2.26-2.84,3.59c-0.46,1.33-0.62,2.6-0.48,3.83c0.33,2.96,2.07,5.36,5.22,7.2l-2.16,0.24
                                        c-0.91-0.62-1.73-1.3-2.47-2.05c-0.73-0.75-1.38-1.71-1.94-2.88c-0.56-1.17-0.94-2.58-1.12-4.22c-0.22-1.94-0.09-3.7,0.4-5.29
                                        c0.48-1.59,1.22-2.95,2.22-4.07s2.18-2.02,3.55-2.7c1.37-0.67,2.81-1.09,4.33-1.26c1.3-0.15,2.53-0.12,3.68,0.08
                                        c1.16,0.2,2.2,0.54,3.13,1c0.93,0.47,1.81,1.04,2.65,1.74c1.37,1.19,2.35,2.48,2.95,3.87s1,2.91,1.19,4.57
                                        c0.18,1.64,0.11,3.46-0.21,5.45c-0.08,0.7-0.11,1.21-0.07,1.53c0.07,0.58,0.5,0.99,1.3,1.21l0.05,0.46L546.76,322.83z" />
                    <path class="st2" d="M544.5,334.2l-0.19,11.17l7.05,0.12c0.86,0.01,1.59-0.13,2.2-0.44s0.93-1.07,0.95-2.26l0-0.16l0.47,0.01
                                        l-0.19,11.11l-0.47-0.01c0.02-1.24-0.25-2.04-0.81-2.41c-0.56-0.36-1.31-0.55-2.24-0.57l-16.6-0.28
                                        c-0.51-0.01-0.98,0.03-1.41,0.12c-0.42,0.09-0.81,0.33-1.15,0.73c-0.35,0.4-0.52,1.02-0.54,1.85l0,0.16l-0.47-0.01l0.19-11.11
                                        l0.47,0.01c-0.02,1.25,0.24,2.06,0.8,2.41c0.55,0.36,1.29,0.54,2.21,0.56l7.98,0.14l0.19-11.17l-7.98-0.14
                                        c-0.53-0.01-1,0.03-1.43,0.12c-0.43,0.09-0.81,0.33-1.15,0.73c-0.34,0.4-0.52,1.02-0.53,1.85l0,0.16l-0.47-0.01l0.19-11.11
                                        l0.47,0.01c-0.02,1.24,0.25,2.04,0.8,2.41c0.55,0.36,1.29,0.55,2.21,0.57l16.6,0.28c0.87,0.02,1.61-0.14,2.21-0.45
                                        c0.61-0.32,0.92-1.07,0.94-2.26l0-0.16l0.47,0.01l-0.19,11.11l-0.47-0.01c0.02-1.22-0.25-2.02-0.81-2.39s-1.31-0.57-2.25-0.58
                                        L544.5,334.2z" />
                    <path class="st2"
                        d="M553.71,356.91l0.43,0.05L552.83,368l-0.46-0.06c0.15-1.22-0.04-2.04-0.55-2.47
                                        c-0.52-0.42-1.23-0.69-2.15-0.8l-16.52-1.98c-0.52-0.06-1-0.07-1.42-0.02c-0.43,0.05-0.83,0.25-1.22,0.62
                                        c-0.39,0.37-0.63,0.97-0.73,1.81l-0.01,0.13l-0.46-0.05l1.32-11.03l0.46,0.06c-0.15,1.21,0.04,2.03,0.55,2.46
                                        s1.22,0.7,2.14,0.81l16.52,1.98c1.09,0.13,1.9-0.01,2.44-0.43C553.27,358.6,553.6,357.9,553.71,356.91z" />
                    <path class="st2" d="M525.71,383.8l3.59-17.65l0.46,0.09c-0.25,1.21-0.13,2.04,0.34,2.5c0.47,0.46,1.16,0.79,2.08,0.97
                                        l16.3,3.32c1.01,0.21,1.81,0.14,2.4-0.19c0.59-0.33,0.99-1.02,1.2-2.06l0.46,0.09l-2.23,10.95l-0.46-0.09
                                        c0.25-1.21,0.13-2.05-0.33-2.53c-0.47-0.48-1.16-0.82-2.08-1.01l-15.53-3.16c-0.96-0.2-1.72-0.16-2.3,0.11
                                        c-0.57,0.26-0.97,0.93-1.19,2l-0.33,1.6c-0.22,1.09-0.15,2.17,0.21,3.25c0.36,1.08,1.48,2.2,3.35,3.37l-0.09,0.46L525.71,383.8z
                                        " />
                    <path class="st2"
                        d="M542.89,408.85l-5.13-1.38l0.14-0.45c0.91,0.06,1.69,0.05,2.32-0.03c0.63-0.08,1.16-0.3,1.6-0.67
                                        c0.43-0.37,0.78-0.95,1.02-1.75l1.41-4.56l-9.52-2.94l-1.12,3.64c-0.33,1.08-0.34,1.95-0.01,2.59c0.33,0.64,0.95,1.15,1.87,1.53
                                        l-0.14,0.44l-6.64-2.05l0.14-0.44c1.05,0.16,1.84-0.01,2.36-0.5c0.52-0.49,0.91-1.14,1.16-1.96l1.12-3.64l-6.52-2.02
                                        c-1.89-0.58-3.13,0.1-3.73,2.04l-0.43,1.38c-0.29,0.93-0.4,1.73-0.34,2.39c0.06,0.66,0.34,1.28,0.82,1.85
                                        c0.48,0.57,1.22,1.18,2.22,1.82l-0.14,0.44l-5.34-2.02l5.27-17.02l0.45,0.14c-0.37,1.19-0.33,2.04,0.1,2.55s1.08,0.91,1.95,1.17
                                        l15.86,4.91c0.83,0.26,1.58,0.31,2.25,0.18c0.67-0.14,1.18-0.78,1.54-1.93l0.05-0.15l0.45,0.14L542.89,408.85z" />
                </g>
                <g>
                </g>
            </g>
            <g>
                <path class="st3" d="M106.54,632.46h-0.67c-0.2-1.36-0.59-2.56-1.17-3.62c-0.58-1.05-1.28-1.93-2.09-2.62
                                    c-0.82-0.69-1.74-1.21-2.76-1.57c-1.02-0.35-2.1-0.53-3.25-0.53c-1.52,0-2.87,0.32-4.03,0.97c-1.16,0.65-2.05,1.45-2.68,2.42
                                    c-0.75,1.22-1.28,2.57-1.58,4.05c-0.3,1.48-0.46,3.06-0.46,4.73c0,3.05,0.53,5.48,1.6,7.31s2.35,3.1,3.86,3.82
                                    c1.5,0.72,2.99,1.08,4.45,1.08c3.53,0,6.59-1.73,9.18-5.18v2.57c-0.85,0.99-1.76,1.87-2.74,2.63s-2.2,1.4-3.66,1.9
                                    s-3.17,0.76-5.12,0.76c-2.31,0-4.37-0.39-6.18-1.17c-1.81-0.78-3.31-1.83-4.5-3.15s-2.09-2.83-2.7-4.53
                                    c-0.61-1.7-0.91-3.45-0.91-5.26c0-1.55,0.2-2.99,0.59-4.32s0.93-2.52,1.6-3.55c0.67-1.03,1.47-2,2.4-2.88
                                    c1.59-1.45,3.24-2.43,4.95-2.96c1.71-0.53,3.56-0.79,5.54-0.79c1.96,0,4.09,0.32,6.4,0.97c0.81,0.19,1.41,0.29,1.79,0.29
                                    c0.7,0,1.23-0.46,1.6-1.37h0.55V632.46z" />
                <path class="st3" d="M108.23,623.34v-0.51h13.18v0.55c-1.46,0-2.4,0.33-2.83,1c-0.43,0.67-0.64,1.55-0.64,2.64v19.69
                                    c0,0.62,0.06,1.18,0.17,1.68c0.11,0.49,0.42,0.94,0.9,1.34c0.49,0.4,1.23,0.6,2.24,0.6h0.15v0.55h-13.18v-0.55
                                    c1.45,0,2.39-0.33,2.82-0.99c0.43-0.66,0.65-1.54,0.65-2.63v-19.69c0-1.29-0.28-2.23-0.85-2.81
                                    C110.29,623.63,109.41,623.34,108.23,623.34z" />
                <path class="st3"
                    d="M125.58,622.82h19.6c0.9,0,1.65-0.11,2.25-0.34h0.55l0.15,6.59h-0.53c-0.28-1.93-0.75-3.16-1.42-3.68
                                    c-0.67-0.53-1.48-0.79-2.45-0.79h-5.24v22.11c0,0.74,0.08,1.36,0.25,1.88c0.17,0.51,0.5,0.93,1.01,1.26
                                    c0.51,0.32,1.25,0.49,2.23,0.49v0.55h-13.2v-0.55c1.46,0,2.41-0.33,2.84-0.99c0.43-0.66,0.65-1.54,0.65-2.63v-22.11h-5.24
                                    c-0.89,0-1.61,0.28-2.17,0.85c-0.56,0.56-1.1,1.77-1.64,3.63h-0.59l0.15-6.59h0.55C123.93,622.71,124.68,622.82,125.58,622.82z" />
                <path class="st3" d="M149.31,623.34v-0.51h13.18v0.55c-1.46,0-2.4,0.33-2.83,1c-0.43,0.67-0.64,1.55-0.64,2.64v19.69
                                    c0,0.62,0.06,1.18,0.17,1.68c0.11,0.49,0.42,0.94,0.9,1.34c0.49,0.4,1.23,0.6,2.24,0.6h0.15v0.55h-13.18v-0.55
                                    c1.45,0,2.39-0.33,2.82-0.99c0.43-0.66,0.65-1.54,0.65-2.63v-19.69c0-1.29-0.28-2.23-0.85-2.81
                                    C151.36,623.63,150.49,623.34,149.31,623.34z" />
                <path class="st3" d="M186.12,650.87v-5.31h-0.08c-2.04,3.75-5.08,5.62-9.12,5.62c-2.04,0-3.88-0.48-5.49-1.43
                                    c-1.62-0.95-2.82-2.17-3.59-3.64c-0.81-1.52-1.22-3.95-1.22-7.29v-11.81c0-1.19-0.24-2.1-0.71-2.71
                                    c-0.48-0.62-1.39-0.92-2.75-0.92v-0.55h13.18v0.55c-1.45,0-2.39,0.33-2.82,0.99s-0.65,1.54-0.65,2.65v12.51
                                    c0,1.84,0.22,3.29,0.67,4.36c0.32,0.77,0.76,1.44,1.34,2s1.25,0.98,2.02,1.28s1.57,0.44,2.41,0.44c0.88,0,1.71-0.16,2.51-0.47
                                    c0.8-0.31,1.52-0.76,2.16-1.34s1.13-1.24,1.46-1.98c0.46-1.09,0.69-2.79,0.69-5.1v-11.69c0-1.33-0.27-2.28-0.8-2.84
                                    s-1.42-0.84-2.67-0.84v-0.51h13.18v0.55c-1.43,0-2.37,0.32-2.81,0.97c-0.44,0.65-0.66,1.54-0.66,2.67v19.69
                                    c0,1.24,0.25,2.16,0.74,2.76s1.4,0.9,2.72,0.9v0.51H186.12z" />
                <path class="st3" d="M213.39,629.77h-0.74c-0.51-1.75-1.31-3.13-2.42-4.14c-1.1-1.01-2.44-1.51-4.02-1.51
                                    c-0.77,0-1.48,0.16-2.12,0.47c-0.64,0.31-1.15,0.76-1.52,1.33c-0.38,0.58-0.56,1.24-0.56,1.99c0,0.43,0.07,0.86,0.22,1.28
                                    c0.15,0.42,0.5,0.93,1.06,1.54s1.41,1.28,2.55,2.02c1.28,0.8,2.06,1.31,2.34,1.52c1.6,1,2.91,1.94,3.92,2.8
                                    c1.02,0.86,1.79,1.8,2.32,2.8s0.8,2.14,0.8,3.41c0,1.17-0.23,2.23-0.68,3.19c-0.45,0.96-1.09,1.79-1.92,2.49
                                    c-0.83,0.71-1.82,1.25-2.97,1.64c-1.15,0.39-2.4,0.58-3.74,0.58c-1.38,0-2.98-0.26-4.8-0.78c-0.2-0.05-0.46-0.11-0.77-0.17
                                    s-0.59-0.09-0.83-0.09c-0.6,0-1.03,0.31-1.29,0.93h-0.67l0.17-7.92h0.74c0.24,1.5,0.76,2.75,1.55,3.75
                                    c0.79,1,1.69,1.73,2.69,2.18c1,0.45,1.99,0.68,2.95,0.68c1.41,0,2.57-0.39,3.49-1.18c0.92-0.79,1.38-1.75,1.38-2.88
                                    c0-0.76-0.19-1.42-0.58-1.99c-0.39-0.56-0.97-1.12-1.74-1.68c-0.77-0.55-2.23-1.51-4.38-2.88c-1.13-0.74-2.09-1.45-2.89-2.13
                                    s-1.41-1.34-1.86-1.97c-0.44-0.63-0.76-1.26-0.94-1.89c-0.18-0.63-0.28-1.3-0.28-2.01c0-1.37,0.35-2.72,1.06-4.06
                                    c0.71-1.33,1.7-2.42,3-3.27c1.29-0.84,2.77-1.27,4.44-1.27c0.77,0,1.52,0.08,2.23,0.23c0.19,0.03,0.44,0.08,0.76,0.16
                                    c0.32,0.08,0.58,0.15,0.8,0.2c0.56,0.1,0.98,0.15,1.26,0.15c0.43,0,0.73-0.07,0.9-0.21c0.17-0.14,0.33-0.34,0.49-0.61h0.59
                                    V629.77z" />
                <path class="st3" d="M225.69,638.74v-3.9h3.9v3.9H225.69z" />
                <path class="st3" d="M255.76,622.56l9.43,24.26c0.51,1.25,1.1,2.1,1.79,2.56c0.69,0.46,1.53,0.78,2.53,0.94v0.55h-13.29v-0.55
                                    c1.82-0.1,2.72-0.67,2.72-1.71c0-0.17-0.03-0.4-0.09-0.7c-0.06-0.3-0.13-0.62-0.23-0.95c-0.09-0.34-0.16-0.54-0.18-0.62
                                    l-2.34-5.96h-8.38l-2,5.73c-0.25,0.69-0.38,1.31-0.38,1.87c0,0.86,0.25,1.44,0.76,1.74c0.51,0.3,1.11,0.5,1.81,0.6v0.55h-8.42
                                    v-0.55c0.88-0.09,1.69-0.5,2.46-1.23c0.76-0.73,1.5-2.07,2.21-4.03l7.96-22.51H255.76z M248.37,638.51h6.99l-3.62-9.45
                                    L248.37,638.51z" />
                <path class="st3" d="M291.82,650.87h-21.37v-0.55c1.46,0,2.4-0.33,2.83-0.98c0.43-0.65,0.64-1.53,0.64-2.64v-19.69
                                    c0-1.22-0.26-2.13-0.79-2.73c-0.53-0.6-1.42-0.9-2.68-0.9v-0.55h13.25v0.55c-1.46,0-2.42,0.33-2.87,0.98
                                    c-0.45,0.65-0.68,1.54-0.68,2.66v18.76c0,1.16,0.22,2.03,0.67,2.64c0.44,0.6,1.31,0.9,2.61,0.9h1.94c1.32,0,2.56-0.34,3.73-1.01
                                    s2.21-2.23,3.12-4.69h0.55L291.82,650.87z" />
                <path class="st3"
                    d="M294.43,622.82h19.6c0.9,0,1.65-0.11,2.25-0.34h0.55l0.15,6.59h-0.53c-0.28-1.93-0.75-3.16-1.42-3.68
                                    c-0.67-0.53-1.48-0.79-2.45-0.79h-5.24v22.11c0,0.74,0.08,1.36,0.25,1.88c0.17,0.51,0.5,0.93,1.01,1.26
                                    c0.51,0.32,1.25,0.49,2.23,0.49v0.55h-13.2v-0.55c1.46,0,2.41-0.33,2.84-0.99c0.43-0.66,0.65-1.54,0.65-2.63v-22.11h-5.24
                                    c-0.89,0-1.61,0.28-2.17,0.85c-0.56,0.56-1.1,1.77-1.64,3.63h-0.59l0.15-6.59h0.55C292.78,622.71,293.53,622.82,294.43,622.82z" />
                <path class="st3" d="M318.16,623.34v-0.51h13.18v0.55c-1.46,0-2.4,0.33-2.83,1c-0.43,0.67-0.64,1.55-0.64,2.64v19.69
                                    c0,0.62,0.06,1.18,0.17,1.68c0.12,0.49,0.42,0.94,0.9,1.34c0.49,0.4,1.23,0.6,2.24,0.6h0.15v0.55h-13.18v-0.55
                                    c1.45,0,2.39-0.33,2.82-0.99c0.43-0.66,0.65-1.54,0.65-2.63v-19.69c0-1.29-0.28-2.23-0.85-2.81
                                    C320.21,623.63,319.34,623.34,318.16,623.34z" />
                <path class="st3" d="M354.97,650.87v-5.31h-0.08c-2.04,3.75-5.08,5.62-9.12,5.62c-2.04,0-3.88-0.48-5.49-1.43
                                    c-1.62-0.95-2.82-2.17-3.59-3.64c-0.81-1.52-1.22-3.95-1.22-7.29v-11.81c0-1.19-0.24-2.1-0.71-2.71
                                    c-0.48-0.62-1.39-0.92-2.75-0.92v-0.55h13.18v0.55c-1.45,0-2.39,0.33-2.82,0.99s-0.65,1.54-0.65,2.65v12.51
                                    c0,1.84,0.22,3.29,0.67,4.36c0.32,0.77,0.77,1.44,1.34,2c0.58,0.56,1.25,0.98,2.02,1.28c0.77,0.29,1.57,0.44,2.41,0.44
                                    c0.88,0,1.71-0.16,2.51-0.47c0.8-0.31,1.52-0.76,2.16-1.34c0.64-0.58,1.13-1.24,1.46-1.98c0.46-1.09,0.69-2.79,0.69-5.1v-11.69
                                    c0-1.33-0.27-2.28-0.8-2.84s-1.42-0.84-2.67-0.84v-0.51h13.18v0.55c-1.43,0-2.37,0.32-2.81,0.97c-0.44,0.65-0.66,1.54-0.66,2.67
                                    v19.69c0,1.24,0.25,2.16,0.74,2.76c0.5,0.6,1.4,0.9,2.72,0.9v0.51H354.97z" />
                <path class="st3" d="M382.24,629.77h-0.74c-0.51-1.75-1.31-3.13-2.42-4.14c-1.11-1.01-2.44-1.51-4.02-1.51
                                    c-0.77,0-1.48,0.16-2.12,0.47c-0.64,0.31-1.15,0.76-1.52,1.33c-0.38,0.58-0.56,1.24-0.56,1.99c0,0.43,0.07,0.86,0.22,1.28
                                    c0.15,0.42,0.5,0.93,1.06,1.54s1.41,1.28,2.55,2.02c1.28,0.8,2.06,1.31,2.34,1.52c1.6,1,2.91,1.94,3.92,2.8
                                    c1.02,0.86,1.79,1.8,2.32,2.8s0.8,2.14,0.8,3.41c0,1.17-0.22,2.23-0.68,3.19c-0.45,0.96-1.09,1.79-1.92,2.49
                                    c-0.83,0.71-1.82,1.25-2.97,1.64c-1.15,0.39-2.4,0.58-3.74,0.58c-1.38,0-2.98-0.26-4.8-0.78c-0.2-0.05-0.46-0.11-0.77-0.17
                                    c-0.31-0.06-0.59-0.09-0.83-0.09c-0.6,0-1.03,0.31-1.29,0.93h-0.67l0.17-7.92h0.74c0.24,1.5,0.76,2.75,1.55,3.75
                                    c0.79,1,1.69,1.73,2.69,2.18c1,0.45,1.99,0.68,2.95,0.68c1.41,0,2.57-0.39,3.49-1.18c0.92-0.79,1.38-1.75,1.38-2.88
                                    c0-0.76-0.19-1.42-0.58-1.99c-0.39-0.56-0.97-1.12-1.74-1.68c-0.77-0.55-2.23-1.51-4.38-2.88c-1.13-0.74-2.09-1.45-2.89-2.13
                                    c-0.79-0.69-1.41-1.34-1.86-1.97c-0.44-0.63-0.76-1.26-0.94-1.89c-0.18-0.63-0.28-1.3-0.28-2.01c0-1.37,0.35-2.72,1.06-4.06
                                    c0.71-1.33,1.71-2.42,3-3.27c1.29-0.84,2.77-1.27,4.44-1.27c0.77,0,1.52,0.08,2.23,0.23c0.19,0.03,0.44,0.08,0.76,0.16
                                    c0.32,0.08,0.58,0.15,0.8,0.2c0.56,0.1,0.98,0.15,1.26,0.15c0.43,0,0.73-0.07,0.91-0.21c0.17-0.14,0.33-0.34,0.49-0.61h0.59
                                    V629.77z" />
                <path class="st3" d="M394.54,638.74v-3.9h3.9v3.9H394.54z" />
                <path class="st3" d="M428.38,622.82l0.44,4.97h-0.55c-0.28-0.83-0.55-1.45-0.81-1.88c-0.26-0.43-0.7-0.79-1.3-1.09
                                    s-1.47-0.44-2.57-0.44h-5.48v11.48h4.78c1,0,1.92-0.26,2.75-0.77c0.83-0.51,1.28-1.44,1.34-2.79h0.59v8.11h-0.59
                                    c-0.06-0.84-0.38-1.55-0.95-2.13c-0.57-0.58-1.46-0.88-2.67-0.88h-5.26v9.29c0,1.07,0.25,1.94,0.74,2.61s1.39,1.01,2.68,1.01
                                    h0.19v0.55h-13.29v-0.55c1.43,0,2.37-0.32,2.79-0.97c0.43-0.65,0.64-1.53,0.64-2.65v-19.73c0-0.99-0.19-1.84-0.56-2.54
                                    c-0.37-0.7-1.27-1.06-2.67-1.06h-0.19v-0.55H428.38z" />
                <path class="st3" d="M431.27,636.76c0-1.9,0.33-3.73,0.98-5.46c0.65-1.74,1.62-3.27,2.89-4.58c1.27-1.31,2.81-2.34,4.62-3.07
                                    c1.81-0.73,3.86-1.09,6.14-1.09c2.31,0,4.37,0.37,6.18,1.11c1.81,0.74,3.34,1.77,4.61,3.09c1.26,1.32,2.22,2.85,2.87,4.58
                                    c0.65,1.73,0.97,3.58,0.97,5.53c0,1.94-0.31,3.77-0.94,5.48c-0.63,1.71-1.55,3.23-2.77,4.55s-2.75,2.36-4.6,3.12
                                    c-1.85,0.76-3.94,1.14-6.27,1.14c-2.51,0-4.71-0.43-6.58-1.29c-1.87-0.86-3.4-1.99-4.59-3.4c-1.19-1.41-2.07-2.96-2.64-4.67
                                    C431.56,640.13,431.27,638.44,431.27,636.76z M437.94,636.4c0,1.9,0.14,3.78,0.43,5.63c0.29,1.85,1.02,3.57,2.22,5.18
                                    c1.19,1.61,2.99,2.41,5.39,2.41c3.36,0,5.52-1.36,6.46-4.07c0.95-2.71,1.42-5.47,1.42-8.29c0-2.2-0.19-4.25-0.57-6.17
                                    s-1.16-3.56-2.33-4.92c-1.17-1.37-2.83-2.05-4.98-2.05c-2.41,0-4.21,0.78-5.4,2.33c-1.19,1.56-1.92,3.21-2.21,4.96
                                    C438.08,633.16,437.94,634.83,437.94,636.4z" />
                <path class="st3" d="M473.17,637.73h-0.89v8.97c0,1.07,0.16,1.86,0.48,2.39c0.32,0.53,0.7,0.86,1.16,1.01
                                    c0.46,0.15,1.07,0.23,1.83,0.26v0.51h-13.18v-0.55c1.47,0,2.42-0.33,2.84-0.99c0.42-0.66,0.63-1.54,0.63-2.63v-19.65
                                    c0-1.35-0.27-2.29-0.82-2.85c-0.55-0.55-1.43-0.83-2.65-0.83v-0.55h14.55c1.92,0,3.6,0.3,5.05,0.9s2.55,1.44,3.31,2.53
                                    c0.76,1.09,1.14,2.34,1.14,3.75c0,1.14-0.24,2.16-0.72,3.05s-1.13,1.62-1.95,2.19c-0.82,0.57-1.73,1.01-2.73,1.31
                                    c1.31,0.83,2.58,2.29,3.81,4.38l3.35,5.69c0.57,0.98,1.1,1.74,1.58,2.28c0.48,0.54,0.91,0.89,1.28,1.07
                                    c0.37,0.17,0.77,0.29,1.2,0.35v0.55h-9.04c-0.88-1.59-1.55-2.85-2.02-3.79c-1.5-2.93-2.59-4.97-3.28-6.11s-1.39-1.97-2.12-2.48
                                    C475.23,637.99,474.3,637.73,473.17,637.73z M473.8,624.38h-1.52v11.79h1.28c2.18,0,3.83-0.52,4.93-1.57
                                    c1.11-1.05,1.66-2.55,1.66-4.52c0-1.22-0.24-2.25-0.71-3.09c-0.48-0.84-1.19-1.49-2.13-1.93
                                    C476.34,624.61,475.18,624.38,473.8,624.38z" />
                <path class="st3"
                    d="M494.76,622.82h19.59c0.9,0,1.65-0.11,2.25-0.34h0.55l0.15,6.59h-0.53c-0.28-1.93-0.75-3.16-1.42-3.68
                                    c-0.67-0.53-1.48-0.79-2.45-0.79h-5.24v22.11c0,0.74,0.08,1.36,0.25,1.88c0.16,0.51,0.5,0.93,1.01,1.26
                                    c0.51,0.32,1.25,0.49,2.23,0.49v0.55h-13.2v-0.55c1.46,0,2.41-0.33,2.84-0.99c0.43-0.66,0.65-1.54,0.65-2.63v-22.11h-5.24
                                    c-0.89,0-1.61,0.28-2.17,0.85c-0.56,0.56-1.1,1.77-1.64,3.63h-0.59l0.15-6.59h0.55C493.11,622.71,493.86,622.82,494.76,622.82z" />
                <path class="st3" d="M518.49,623.34v-0.51h13.18v0.55c-1.46,0-2.4,0.33-2.83,1c-0.43,0.67-0.64,1.55-0.64,2.64v19.69
                                    c0,0.62,0.06,1.18,0.17,1.68c0.11,0.49,0.42,0.94,0.9,1.34c0.49,0.4,1.23,0.6,2.24,0.6h0.15v0.55h-13.18v-0.55
                                    c1.45,0,2.39-0.33,2.82-0.99c0.43-0.66,0.65-1.54,0.65-2.63v-19.69c0-1.29-0.28-2.23-0.85-2.81
                                    C520.54,623.63,519.67,623.34,518.49,623.34z" />
                <path class="st3" d="M555.3,650.87v-5.31h-0.08c-2.04,3.75-5.08,5.62-9.12,5.62c-2.04,0-3.88-0.48-5.49-1.43
                                    c-1.62-0.95-2.82-2.17-3.59-3.64c-0.81-1.52-1.22-3.95-1.22-7.29v-11.81c0-1.19-0.24-2.1-0.71-2.71
                                    c-0.48-0.62-1.39-0.92-2.75-0.92v-0.55h13.18v0.55c-1.45,0-2.39,0.33-2.82,0.99s-0.65,1.54-0.65,2.65v12.51
                                    c0,1.84,0.22,3.29,0.67,4.36c0.32,0.77,0.77,1.44,1.34,2c0.58,0.56,1.25,0.98,2.02,1.28c0.77,0.29,1.57,0.44,2.41,0.44
                                    c0.88,0,1.71-0.16,2.51-0.47c0.8-0.31,1.52-0.76,2.16-1.34c0.64-0.58,1.13-1.24,1.46-1.98c0.46-1.09,0.69-2.79,0.69-5.1v-11.69
                                    c0-1.33-0.27-2.28-0.8-2.84s-1.42-0.84-2.67-0.84v-0.51h13.18v0.55c-1.43,0-2.37,0.32-2.81,0.97c-0.44,0.65-0.66,1.54-0.66,2.67
                                    v19.69c0,1.24,0.25,2.16,0.74,2.76c0.5,0.6,1.4,0.9,2.72,0.9v0.51H555.3z" />
                <path class="st3" d="M582.57,629.77h-0.74c-0.51-1.75-1.31-3.13-2.42-4.14c-1.11-1.01-2.44-1.51-4.02-1.51
                                    c-0.77,0-1.48,0.16-2.12,0.47c-0.64,0.31-1.15,0.76-1.52,1.33c-0.38,0.58-0.56,1.24-0.56,1.99c0,0.43,0.07,0.86,0.22,1.28
                                    c0.15,0.42,0.5,0.93,1.06,1.54s1.41,1.28,2.55,2.02c1.28,0.8,2.06,1.31,2.34,1.52c1.6,1,2.91,1.94,3.92,2.8
                                    c1.02,0.86,1.79,1.8,2.32,2.8s0.8,2.14,0.8,3.41c0,1.17-0.22,2.23-0.68,3.19c-0.45,0.96-1.09,1.79-1.92,2.49
                                    c-0.83,0.71-1.82,1.25-2.97,1.64c-1.15,0.39-2.4,0.58-3.74,0.58c-1.38,0-2.98-0.26-4.8-0.78c-0.2-0.05-0.46-0.11-0.77-0.17
                                    c-0.31-0.06-0.59-0.09-0.83-0.09c-0.6,0-1.03,0.31-1.29,0.93h-0.67l0.17-7.92h0.74c0.24,1.5,0.76,2.75,1.55,3.75
                                    c0.79,1,1.69,1.73,2.69,2.18c1,0.45,1.99,0.68,2.95,0.68c1.41,0,2.57-0.39,3.49-1.18c0.92-0.79,1.38-1.75,1.38-2.88
                                    c0-0.76-0.19-1.42-0.58-1.99c-0.39-0.56-0.97-1.12-1.74-1.68c-0.77-0.55-2.23-1.51-4.38-2.88c-1.13-0.74-2.09-1.45-2.89-2.13
                                    c-0.79-0.69-1.41-1.34-1.86-1.97c-0.44-0.63-0.76-1.26-0.94-1.89c-0.18-0.63-0.28-1.3-0.28-2.01c0-1.37,0.35-2.72,1.06-4.06
                                    c0.71-1.33,1.71-2.42,3-3.27c1.29-0.84,2.77-1.27,4.44-1.27c0.77,0,1.52,0.08,2.23,0.23c0.19,0.03,0.44,0.08,0.76,0.16
                                    c0.32,0.08,0.58,0.15,0.8,0.2c0.56,0.1,0.98,0.15,1.26,0.15c0.43,0,0.73-0.07,0.91-0.21c0.17-0.14,0.33-0.34,0.49-0.61h0.59
                                    V629.77z" />
            </g>
            <g>
                <path class="st4" d="M455.68,354.75l-0.42-5.28l-0.3-7.53l-1.03-4.62l-4.55-7.11l-6.42-6.86l-7.21-5.47l-9.09-5.4
                                    c0,0-3.7-3.46-8.73-10.63c-5.03-7.17-16.97-17.12-20.06-18.95c-3.09-1.82-8.67-5.53-8.67-5.53l-1.7-1.88l1.76-13.12
                                    c0,0,2.48-9.59,4.13-19.61c1.65-10.02,3.38-26.29,3.87-29.09c0.48-2.79-1.82-19.61-5.58-26.42c-3.76-6.8-14.43-9.96-24.24-11.72
                                    c-9.82-1.76-17.15,1.09-20,2.55c-2.85,1.46-7.33,6.62-10.05,9.72s-5.7,12.45-5.7,12.45l-1.88,8.32l-0.97,12.51l0.61,29.27l2,7.77
                                    l3.03,6.98l2.24,21.74l-20.12,9.96c0,0-11.94,8.26-14.61,9.05c-2.67,0.79-6.91,1.4-6.91,1.4l27.03-105.01l22-84.94l10.24-39.65
                                    l7.33-29.45l2.61-10.57l0.67-19.43l-2.73,3.7l-3.03,4.68l-4.91,10.77L310.4,197.22l-30.79,111.92l-1.39,4.55l-1.7,1.34
                                    l-9.76,6.56l-7.27,8.26l-4.36,10.02l-1.33,9.47l-2.55-1.98c0,0-2.16-4.57-5.37-8.53c-3.22-3.95-4.78-7.65-4.78-7.65l-1.78-1.74
                                    l-5.73-1.98l-0.76,2.32l0.79,4.83l2.18,2.45l5.3,4.43l14.44,23.14l-0.43,5.03l-1.01,4.14l-1.03,5.89l-8.29,2.61l-1.9,1.4v2.98
                                    l-1.52,4.13l-1.7,2.85l-0.32,7.8l-0.59,4.41l-0.12,2.61l0.71,4.31v3.53l1.75,2.36l3.68,2.01v1.93l-1.17,3.96l-1.21,6.19
                                    l0.06,4.49l1.39,4.13l1.27,2.18v3.46l-1.21,7.06l-1.94,1.56l-6.77,1.34l-4.5,1.21l-2.06,3.16l-6.49,6.26l-4.12,4.1l0.48,2.21
                                    l3.7,2.37l3.94,0.73L225,481.3v3.16l0.82,3.83v2.91l2.09,2.19l2.85,1.7l1.15,2.43l-1.33,2.91l-1.68,4.13l-0.45,2.49v3.89
                                    l1.82,4.31l4.42,0.85h2.14l2.75-2.33l2.3-6.56l-0.39-4.82l-0.54-2.23l1.37-1.13c0,0,23.1-1.66,22.99-1.38
                                    c-0.1,0.28,20.07,7.71,37.22,9.58c6.72,1.15,26.48,3.32,51.05-0.02c9.58-1.3,19.75-4.96,29.12-8.27
                                    c1.29-0.45,4.11-1.69,6.55-2.62c2.69-1.03,5.24-2.26,5.24-2.26l3.11-1.89l3.09-7.96l0.42-4.49l-0.24-4.49l-0.55-5.65l0.36-3.95
                                    l2.3-8.93l5.88-11.17l7.64-12.21l9.56-14.39l6.08-10.2l5.86-9.72l6.57-12.51l1.52-4.37c5.76-4.98,9.7-14.21,9.7-14.21l0.91-5.59
                                    L455.68,354.75z M278.85,462.73c-1.44,1.39-16.4-2.38-18.97-6.63c6.73-1.81,12.01-4.73,17.95-7.89c5.21-2.76,6.3-7.33,7.28-12.47
                                    C286.73,439.68,280.25,461.37,278.85,462.73z" />
                <path class="st5" d="M456.4,359.49c-0.41-4.07-0.87-8.14-1.27-12.21c-0.24-2.44-0.35-4.9-0.66-7.33c-0.64-4.98-3.39-9-6.17-12.95
                                    c-2.72-3.87-6.12-7.02-10.35-9.25c-2.75-1.45-5.45-3.01-8.15-4.55c-3.23-1.84-6.21-3.99-8.4-7.06c-2.28-3.2-4.5-6.45-6.81-9.63
                                    c-1.39-1.92-2.8-3.84-4.38-5.6c-4.74-5.27-10.63-8.91-17.06-11.78c-4.6-2.06-5.99-4.76-4.96-9.6c0.82-3.83,1.87-7.62,2.63-11.47
                                    c1.04-5.21,1.93-10.46,2.83-15.7c1.02-5.89,1.95-11.79,2.99-17.68c0.96-5.42,1.62-10.85,0.96-16.37
                                    c-0.32-2.68-0.31-5.42-0.89-8.04c-0.79-3.57-1.57-7.25-3.12-10.53c-2.72-5.76-7.53-9.77-13.31-12.21
                                    c-7.06-2.98-14.48-4.77-22.26-3.85c-4.07,0.48-8.13,1.39-11.68,3.52c-5.22,3.13-9.22,7.53-12.49,12.65
                                    c-2.32,3.64-4,7.51-4.71,11.77c-0.35,2.1-0.57,4.22-0.97,6.31c-1.59,8.35-1.3,16.8-1.26,25.22c0.02,4.82,0.29,9.65,0.61,14.47
                                    c0.2,3.08,0,6.31,1.59,9.12c1.31,2.32,2.17,4.76,2.68,7.34c0.85,4.25,1.69,8.5,2.46,12.77c0.43,2.4,0.72,4.82,1.09,7.3
                                    c-1.04,0.54-1.91,0.98-2.77,1.44c-7.08,3.78-14.19,7.5-20.58,12.44c-3.71,2.87-7.83,5.08-12.21,6.76
                                    c-0.56,0.21-1.08,0.54-1.66,0.84c0.25,0.27,0.33,0.44,0.46,0.49c0.22,0.09,0.49,0.18,0.71,0.13c3.41-0.81,6.92-1.27,9.76-3.67
                                    c7.54-6.4,16.24-10.7,25.52-13.91c0.35-0.12,0.75-0.12,1.15-0.18c1.01,2.77,0.99,5.68,2.22,8.23c0.94-7.65-0.78-15.1-1.72-23.15
                                    c3.43,3.4,4.97,7.81,9.11,9.81c-0.52-0.96-1.03-1.93-1.61-3c0.43-0.03,0.66-0.07,0.89-0.06c6.62,0.21,13.25,0.41,19.87,0.65
                                    c1.56,0.06,2.92-0.35,4.04-1.44c1.65-1.59,3.27-3.21,4.91-4.82c0.55-0.54,1.13-1.06,2.07-1.95c0.11,5.71-2.92,9.92-4.47,14.71
                                    c1.32-0.14,1.77-0.78,2.11-1.68c3.26-8.45,8.18-16.03,12.66-23.83c0.41-0.72,0.86-1.56,2.03-1.7c-0.06,0.77-0.07,1.42-0.18,2.05
                                    c-1.39,8.4-2.81,16.79-4.17,25.19c-0.37,2.28-0.47,4.59,0.27,6.89c1.1-5.69,1.19-11.57,3.34-17.27c0.69,0.5,1.15,0.82,1.6,1.15
                                    c1.78,1.31,3.47,2.76,5.35,3.91c9.92,6.08,18.2,13.86,24.94,23.35c1.74,2.45,3.84,4.71,6.12,6.67c2.4,2.07,5.13,3.79,7.86,5.44
                                    c6.76,4.07,12.48,9.26,17.24,15.53c2.98,3.92,4.14,8.25,3.26,13.16c-0.52,2.86-0.24,5.7,0.76,8.47
                                    c3.17,8.81-0.77,19.02-8.88,23.83c-1.48,0.88-2.98,1.72-4.43,2.64c-0.69,0.43-1.45,0.87-1.78,2.02c1.76-0.44,3.23-0.81,5.1-1.28
                                    c-0.37,1.23-0.52,2.18-0.92,3.02c-3.11,6.52-6.57,12.83-10.98,18.58c-2.51,3.27-5.32,6.23-9.07,8.14
                                    c-1.69,0.86-2.75,2.29-3.5,3.98c-4.69,10.46-11.41,19.48-19.61,27.42c-3.59,3.47-6.35,7.47-8.41,11.99
                                    c-1.09,2.38-2.15,4.78-3.3,7.14c-1.53,3.15-4.01,5.14-7.5,5.72c-1.37,0.23-2.77,0.27-4.16,0.4c-2.93,0.27-5.87,0.53-8.8,0.82
                                    c-0.28,0.03-0.54,0.25-0.88,0.42c0.61,0.56,1.11,1.02,1.97,1.8c-5.03,2.06-9.61,4.29-14.41,5.83
                                    c-15.96,5.13-32.42,7.89-49.09,9.32c-8.23,0.71-16.22,2.07-23.72,5.71c-1.03,0.5-2.42,0.67-3.55,0.47
                                    c-1.84-0.32-3.6-0.32-5.34,0.21c-6.21,1.93-12.59,2.91-19.06,3.3c-5.23,0.32-10.46,0.63-15.7,0.75
                                    c-1.31,0.03-2.84-0.38-3.92-1.11c-2.7-1.84-5.24-3.93-7.77-6c-1.32-1.08-1.31-1.51-0.43-3.53c2.85,1.22,5.71,2.45,8.56,3.68
                                    c0.09-0.15,0.19-0.31,0.28-0.46c-0.62-0.62-1.14-1.39-1.87-1.83c-1.46-0.89-2.99-1.68-4.55-2.38c-3.69-1.65-3.71-1.61-3.35-5.61
                                    c0.16-1.81,0.41-3.6,2.19-4.74c3.73,0.61,7.47,1.22,11.51,1.88c-0.08-1.23-0.14-2.06-0.21-3.03c-2.06,0-3.85,0.02-5.64-0.01
                                    c-1.31-0.02-2.63,0.01-3.92-0.19c-2.01-0.31-2.75-1.52-1.97-3.32c1.16-2.69,2.89-4.74,6.16-4.87c1.3-0.05,2.6-0.31,3.87-0.58
                                    c1.84-0.38,3.22-1.4,4.2-3.47c-0.99,0.32-1.66,0.57-2.35,0.74c-2.3,0.57-4.58,1.22-6.9,1.63c-2.04,0.36-2.63-0.17-3.08-2.13
                                    c-0.49-2.14,0.15-3.44,2.53-3.96c4.47-0.97,8.97-1.87,13.51-2.43c4.89-0.6,9.37,1.1,13.66,3.27c4.91,2.49,9.91,4.71,15.35,5.78
                                    c1.46,0.29,2.3,1.1,2.71,2.49c0.24,0.82,0.58,1.62,0.87,2.42c0.53-0.61,0.64-1.14,0.7-1.66c0.15-1.25,0.78-2.1,1.97-2.58
                                    c3.56-1.44,7.05-3.09,10.68-4.33c5.11-1.75,10.32-3.2,15.48-4.8c3.56-1.11,6.71-2.92,9.65-5.24c3.34-2.63,6.79-5.16,10.38-7.44
                                    c7.31-4.65,15.11-8.14,23.71-9.73c6.86-1.26,13.09-4.13,18.91-7.91c0.51-0.33,0.96-0.78,1.43-1.17c-0.07-0.15-0.14-0.3-0.22-0.45
                                    c-1.98,0.76-3.95,1.53-5.93,2.29c0.23-1.41,0.71-2.44,1.3-3.39c1.66-2.69,2.87-5.56,3.2-8.69c0.25-2.35,0.2-4.74,0.15-7.11
                                    c-0.05-2.58,0.19-5.09,1.37-7.41c3.99-7.82,8.14-15.53,14.01-22.16c2.31-2.61,4.67-5.19,7.05-7.83c0.78,0.85,1.36,1.48,2.31,2.51
                                    c-0.92-6.84-1.77-13.1-2.62-19.37c-0.12,0.01-0.25,0.01-0.37,0.02c-0.22,2.23-0.45,4.47-0.69,6.93
                                    c-3.75-1.68-4.83-5.26-6.98-7.95c1.28,5.46,4.3,10.14,6.89,14.86c-0.28,0.44-0.39,0.66-0.55,0.84c-0.55,0.61-1.09,1.22-1.67,1.8
                                    c-5.13,5.14-9.34,10.96-12.8,17.34c-1.33,2.45-2.56,4.95-3.99,7.34c-2.95,4.97-4.13,10.22-3.4,16.01
                                    c0.57,4.53-0.56,8.78-3.13,12.61c-0.5,0.74-0.96,1.54-1.27,2.37c-0.82,2.25-2.46,3.36-4.74,3.76c-2.09,0.37-4.19,0.75-6.26,1.22
                                    c-13.63,3.07-25.64,9.3-36.13,18.5c-3.25,2.85-6.88,4.93-11.05,6.19c-7.21,2.18-14.37,4.53-21.55,6.79
                                    c-0.67,0.21-1.38,0.34-2.38,0.58c0.13-1.29,0.1-2.36,0.37-3.35c0.72-2.69,1.51-5.36,2.36-8.01c2.8-8.73,2.9-17.35-0.75-25.91
                                    c-2.54-5.95-2.81-12.24-2.39-18.59c0.06-0.94,0.2-1.93,1.3-2.68c0.58,0.64,1.13,1.22,1.64,1.83c1.1,1.32,2.17,2.67,3.28,3.98
                                    c5.03,5.95,9.69,12.15,13.13,19.2c1.49,3.05,4.17,4.41,7.56,4.56c1.39-2.83,1.52-5.49-0.37-7.97c-1.78-2.34-3.84-4.47-5.52-6.88
                                    c-4.27-6.1-8.41-12.3-12.58-18.47c-0.06-0.08,0.05-0.28,0.12-0.58c0.7,0.14,1.44,0.18,2.1,0.44c2.15,0.84,4.29,0.77,6.51,0.26
                                    c4.39-0.99,8.81-1.85,13.21-2.81c2.39-0.52,4.83-0.97,7.13-1.77c3.54-1.23,5.71-3.82,6.51-7.53c-0.7,0.27-1.25,0.68-1.77,1.15
                                    c-2.1,1.89-4.46,3.37-7.17,4.16c-5.89,1.72-11.82,3.32-17.71,5.02c-3.49,1.01-6.81,0.35-10.09-0.84
                                    c-0.49-0.18-0.93-0.63-1.27-1.05c-3.46-4.45-5.41-9.69-7.63-14.79c-0.26-0.59-0.37-1.26-0.44-1.91
                                    c-0.39-3.26-0.64-6.49,0.48-9.71c0.7-2,1.11-4.11,1.66-6.17c1.13-4.26,2.27-8.52,3.39-12.71c4.3-0.61,8.99-4.8,10.67-8.09
                                    c-3.22,1.52-5.47,4.95-9.7,4.52c0.13-0.76,0.2-1.39,0.34-2c1.33-5.57,2.6-11.16,4.01-16.71c10.41-40.84,20.81-81.69,31.31-122.51
                                    c8.3-32.26,16.75-64.48,25.11-96.72c5.16-19.88,10.33-39.77,15.43-59.67c1.11-4.35,2.34-8.74,2.76-13.19
                                    c0.58-6.18,0.45-12.42,0.61-18.64c0.01-0.25-0.19-0.51-0.33-0.88c-7.34,8-11.76,20.13-14,30.8c-1.49,5.03-2.79,9.5-2.86,9.77
                                    c-5.13,18.62-10.26,37.24-15.37,55.87c-6.24,22.73-12.42,45.48-18.72,68.19c-9.41,33.91-18.92,67.8-28.37,101.7
                                    c-2.37,8.52-4.72,17.04-6.97,25.59c-0.65,2.47-1.83,4.23-4.24,5.3c-1.94,0.85-3.74,2.04-5.53,3.18
                                    c-6.79,4.32-11.3,10.34-13.37,18.14c-0.78,2.93-1.48,5.87-2.23,8.8c-0.19,0.76-0.44,1.51-0.84,2.85
                                    c-2.71-4.11-5.28-7.66-8.43-10.78c0.16,0.9,0.53,1.67,1.03,2.34c2.51,3.33,5.04,6.65,7.59,9.95c0.64,0.82,1.38,1.57,2.07,2.35
                                    c-1.18-5.06,0.49-9.71,2.25-14.28c3.54-9.15,10.04-15.74,18.4-20.63c0.2-0.12,0.46-0.14,0.7-0.2
                                    c0.35,2.59-9.25,37.99-12.43,45.79c-0.44-0.41-0.85-0.74-1.19-1.13c-1.8-2.1-3.58-4.21-5.36-6.32c0.39,0.79,0.68,1.65,1.18,2.36
                                    c3.77,5.25,7.58,10.47,11.38,15.71c0.72,1,1.42,2.02,2.27,3.25c-2.49,0.37-3.62-0.88-4.68-2.29
                                    c-4.67-6.22-9.33-12.45-14.01-18.67c-0.5-0.67-1.04-1.3-1.56-1.95c-0.14,0.11-0.27,0.21-0.41,0.32c1.64,2.3,3.29,4.59,4.91,6.9
                                    c1.69,2.41,3.36,4.85,5.02,7.28c1.57,2.3,3.5,4.36,5.06,7.02c-1.93,0.21-3.45,0.37-4.95,0.53c-0.2,1.01-0.35,1.8-0.53,2.72
                                    c-2.22,0.45-4.36,1.2-6.85,1.04c0.41-3.65,0.79-7.12,1.18-10.59c-2.82,3.4-2.75,7.66-3.44,11.7c-1.03,0.16-1.83,0.29-2.63,0.42
                                    c-1.7,0.27-3.42,0.42-5.08,0.86c-2.23,0.58-3.01,1.87-2.4,4.01c0.44,1.52,0.05,2.73-0.73,3.94c-0.62,0.96-1.38,1.85-1.89,2.87
                                    c-0.34,0.68-0.66,1.63-0.45,2.29c0.84,2.71,0.31,5.16-0.89,7.6c-0.75,1.53-0.85,3.17-0.3,4.79c0.53,1.53,1.18,3.02,1.83,4.65
                                    c-0.15,0.27-0.36,0.62-0.55,0.98c-1.22,2.33-1.13,3.32,0.66,5.3c0.93,1.03,1.93,2.02,3,2.9c1.03,0.84,1.3,1.75,0.98,3.01
                                    c-0.58,2.3-1.08,4.62-1.55,6.95c-0.67,3.28-0.77,6.54,0.99,9.55c1.61,2.76,2.12,5.63,1.31,8.73c-0.25,0.95-0.46,1.92-0.52,2.9
                                    c-0.09,1.58-0.81,2.26-2.39,2.5c-2.59,0.38-5.15,0.97-7.7,1.56c-1.69,0.39-3.47,0.91-4.18,2.68c-0.64,1.61-1.81,2.68-2.99,3.82
                                    c-2.53,2.45-5.08,4.88-7.54,7.41c-1.99,2.04-1.71,3.9,0.72,5.43c0.76,0.48,1.59,0.85,2.42,1.18c1.12,0.45,2.26,0.81,3.5,1.24
                                    c-0.67,2.81-1.28,5.53-0.24,8.3c0.15,0.4-0.05,0.97-0.18,1.43c-0.54,1.93-0.01,3.56,1.35,4.95c0.97,1,2,1.93,3.01,2.9
                                    c1.71,1.64,1.73,1.65,0.86,3.75c-0.72,1.74-1.55,3.44-2.18,5.21c-0.44,1.22-0.83,2.51-0.9,3.79c-0.32,5.62,1.87,8.11,7.25,8.42
                                    c0.08,0,0.16-0.01,0.25,0c1.8,0.14,3.39-0.31,4.78-1.51c1.64-1.41,2.55-3.2,2.74-5.32c0.19-2.2,0.27-4.41,0.43-6.62
                                    c0.08-1.11,0.23-2.21,0.36-3.44c3.34-0.2,6.44-0.34,9.54-0.59c4.8-0.39,9.64-0.52,14.28-2.16c2.72-0.96,5.6-1.33,8.48-1.04
                                    c3.72,0.37,7.1-0.48,10.43-2.1c4.67-2.29,9.61-3.54,14.85-3.95c7.5-0.58,14.99-1.47,22.46-2.34c6.42-0.75,12.8-1.87,19.24-2.42
                                    c6.02-0.51,11.58-2.09,16.63-5.37c7.68-4.99,15.99-8.19,25.14-9.15c2.72-0.29,5.04-1.49,6.59-3.82c1.37-2.05,2.46-4.26,2.74-6.77
                                    c0.43-3.86,1.93-7.31,4.37-10.26c1.97-2.39,4.17-4.62,6.4-6.78c4.38-4.24,8.27-8.85,11.33-14.15c1.56-2.69,3.15-5.39,4.95-7.91
                                    c1.32-1.84,3-3.44,4.57-5.09c0.32-0.34,0.89-0.45,1.34-0.66c-0.16,1.08-0.58,1.86-1.04,2.6c-5.32,8.46-10.62,16.93-15.97,25.37
                                    c-3.47,5.48-6.66,11.1-8.66,17.31c-1.56,4.83-2.03,9.7-1.05,14.76c0.46,2.36,0.42,4.92,0.03,7.3c-0.66,4.04-1.7,8.02-4.28,11.38
                                    c1.64-0.53,0.33-1.49,1.64-0.53c2.19-3.93,3.2-4.27,4.38-8.5c1.37-4.92,1.25-9.88,0.6-14.87c-0.52-3.97-0.34-7.84,1.43-11.53
                                    c0.64-1.33,1.13-2.72,1.72-4.07c3.58-8.33,8.61-15.8,13.63-23.29c6.43-9.59,12.92-19.15,18.29-29.41
                                    c0.72-1.37,1.62-2.65,2.48-3.95c2.73-4.1,5.41-8.25,7.08-12.89c1.24-3.45,3.08-6.48,5.27-9.36c0.5-0.65,0.94-1.34,1.44-1.99
                                    C455.64,368.9,456.9,364.44,456.4,359.49z M385.22,259.33c-4.1,4.34-8.2,8.69-12.36,12.97c-1.42,1.46-2.96,2.85-4.6,4.06
                                    c-2.06,1.53-4.41,2.65-7,2.65c-4.25-0.01-8.51-0.14-12.75-0.49c-3.91-0.32-6.93-2.29-8.85-5.8c-2.44-4.45-4.92-8.87-7.34-13.33
                                    c-1.6-2.93-2.3-6.13-2.48-9.43c-0.26-4.82-0.39-9.64-0.59-14.47c-0.05-1.15-0.15-2.29-0.19-2.88
                                    c0.09-11.11,0.04-21.66,2.68-32.02c2.69-10.59,9-18.25,18.62-23.13c3.22-1.63,6.95-2.01,10.55-1.71
                                    c4.39,0.37,8.84,0.81,13.1,1.88c6.5,1.64,12.22,5.02,16,10.67c2.79,4.16,4.2,9.04,4.71,14.08c0.21,2.12,0.3,4.24,0.52,6.36
                                    c0.59,5.72-0.72,11.25-1.7,16.8c-1.58,8.94-3.35,17.85-5.01,26.78C388.05,254.97,387.07,257.36,385.22,259.33z M244.67,452.78
                                    c-0.81-1.32-0.6-2.72-0.32-4.06c1.82-8.63,3.68-17.25,5.54-25.88c0.07-0.31,0.22-0.61,0.38-1.01c3.17,0,6.33,0,9.9,0
                                    c-2.86,10.55-5.67,20.91-8.51,31.41C249.09,453.07,246.9,452.92,244.67,452.78z M278.12,462.09c-1.44,1.39-16.4-2.38-18.97-6.63
                                    c6.73-1.81,12.01-4.73,17.95-7.89c5.21-2.76,6.3-7.33,7.28-12.47C286,439.04,279.52,460.73,278.12,462.09z M281.8,427.6
                                    c1.41,2.03,1.79,4.38,1.51,6.81c-0.44,3.85-1.85,7.34-4.54,10.13c-1.27,1.32-2.92,2.35-4.56,3.2c-3.41,1.76-6.99,3.19-10.38,4.98
                                    c-2.32,1.23-4.55,1.78-7.11,0.5c-1.01,1.34-2.24,1.44-3.76,0.35c0.09-0.61,0.12-1.33,0.31-2.01c2.49-9.16,4.98-18.31,7.52-27.45
                                    c0.22-0.8,0.81-1.5,1.23-2.25l-0.07,0.07c0.78-1.02,1.4-2.23,2.37-3.02c1.88-1.53,2.52-3.3,2-5.63c-0.12-0.55-0.05-1.43,0.3-1.75
                                    c2.9-2.6,5.89-5.1,9.31-8.03c-0.22,1.46-0.35,2.29-0.48,3.13c0.13,0.06,0.25,0.13,0.38,0.19c0.6-1.01,1.29-1.97,1.77-3.04
                                    c0.47-1.02,0.72-2.14,1.08-3.24c1.89,1.19,2.14,1.66,1.57,3.77c-1.1,4.06-1.54,8.17-1.48,12.38
                                    C278.82,420.61,279.5,424.3,281.8,427.6z M307.07,430.84c-0.25,0.41-1.19,0.77-1.62,0.62c-0.96-0.34-1.93-0.89-2.66-1.59
                                    c-0.69-0.66-1.07-1.63-1.6-2.45c-2.55-3.9-5.1-7.8-7.69-11.67c-0.67-1.01-1.44-1.94-1.32-3.48c1.78,0.88,2.23,2.67,3.32,3.88
                                    c1.09,1.22,2.04,2.55,3.05,3.84c1.06,1.36,2.13,2.7,3.14,4.08c0.95,1.3,1.84,2.65,2.75,3.98c0.19-0.08,0.38-0.15,0.57-0.23
                                    c-0.43-1.27-0.86-2.53-1.31-3.86C307.01,424.69,308.71,428.18,307.07,430.84z M287.83,399.79c4.69,6.91,9.36,13.84,14.03,20.77
                                    c0.39,0.58,0.71,1.2,0.89,1.93c-1.57-0.67-2.69-1.8-3.6-3.13c-5.19-7.56-10.35-15.14-15.52-22.71c-0.67-0.98-1.18-2.16-3.05-2.49
                                    c3.77,5.87,7.29,11.37,10.82,16.87c-0.08,0.1-0.16,0.2-0.24,0.31c-0.36-0.17-0.82-0.25-1.06-0.52c-3.24-3.69-6.47-7.4-9.66-11.13
                                    c-1.13-1.32-1.53-2.95-1.08-4.61c0.55-2.03-0.12-3.68-1.21-5.3c-1.82-2.72-3.66-5.43-5.38-8.22c-1.36-2.22-1.31-3.71-0.05-6.4
                                    c0.34,0.44,0.69,0.76,0.87,1.16C277.28,384.76,282.68,392.2,287.83,399.79z M276.68,378.47c0.29,0.08,0.48,0.09,0.49,0.13
                                    c0.13,0.86,0.23,1.72,0.34,2.58c-0.21,0.03-0.42,0.06-0.63,0.09C276.82,380.37,276.76,379.47,276.68,378.47z M271.15,371.64
                                    c-1.78-1.66-3.36-3.56-4.98-5.39c-1.04-1.18-1.35-2.56-0.94-4.12c1.53-5.94,2.94-11.91,4.56-17.82
                                    c9.99-36.45,20.04-72.89,30.04-109.33c8.68-31.63,17.33-63.28,26-94.92c7-25.56,14.01-51.12,20.98-76.69
                                    c0.4-1.46,2.98-10.77,5.14-18.66c0.81-2.64,1.63-5.28,2.41-7.93c1.38-4.71,3.78-8.87,6.73-12.74c0.39-0.51,0.71-1.07,1.07-1.6
                                    c0.2,0.14,0.41,0.29,0.61,0.43c-7.88,31.59-17.38,62.78-24.47,94.58c0.42-0.59,0.68-1.23,0.86-1.89c6.13-23,12.27-46,18.38-69
                                    c1.45-5.45,2.82-10.93,4.28-16.38c0.27-1.01,0.36-2.19,1.84-3.25c0,1.36,0.09,2.24-0.02,3.09c-0.51,3.89-0.75,7.84-1.67,11.63
                                    c-3.84,15.9-7.82,31.77-11.88,47.61c-7.91,30.82-15.93,61.61-23.89,92.42c-6.67,25.82-13.33,51.64-19.98,77.46
                                    c-10.02,38.97-20.03,77.94-30.05,116.91c-0.13,0.5-0.38,0.97-0.68,1.73c-0.42-0.68-0.77-1.06-0.89-1.5
                                    C274.06,374.25,272.6,373,271.15,371.64z M271.81,387.83c0.13-0.19,0.38-0.29,0.91-0.68c1.3,0.91,2.64,1.7,3.81,2.68
                                    c1.51,1.26,1.87,2.88,1.4,4.85c-0.83,3.44-2.51,6.38-4.96,8.86c-1.6,1.62-3.36,3.1-5.11,4.56c-1.65,1.37-2.8,1.48-4.22,0.62
                                    c-1.59-0.97-2.7-3.15-2.4-4.76c0.06-0.32,0.13-0.66,0.31-0.92C264.96,397.95,268.38,392.89,271.81,387.83z M268.54,377.22
                                    c0.42,0.45,0.84,0.91,1.26,1.36c-0.16,0.15-0.33,0.3-0.49,0.44c-0.38-0.49-0.77-0.99-1.15-1.48
                                    C268.29,377.43,268.41,377.33,268.54,377.22z M266.34,378.39c-1.33-0.38-2.43-0.69-3.72-1.06
                                    C264.54,375.61,265.06,375.77,266.34,378.39z M239.45,414.18c-0.22-2.03-0.55-4.05-0.69-6.09c-0.1-1.52-0.12-3.08,0.07-4.6
                                    c0.37-2.91,0.83-5.8,1.4-8.68c0.34-1.75,0.97-3.44,1.44-5.16c0.45-1.64,0.99-3.26,1.25-4.93c0.32-2.07,0.32-2.33,2.41-2.78
                                    c5.19-1.12,10.38-2.23,15.6-3.17c2.61-0.47,4.88,0.56,6.42,2.73c1.18,1.65,2.12,3.47,3.33,5.5c-1.53,1.42-2.99,2.78-4.46,4.15
                                    c-0.54,1.06-1.03,2.14-1.63,3.16c-0.91,1.55-1.89,3.07-2.84,4.59c-2.82,4.52-2.26,8,1.82,11.35c0.25,0.2,0.59,0.28,1.02,0.46
                                    c-1.4,1.35-2.53,1.22-3.75,0.87c-3.46-0.99-6.92-1.94-10.39-2.88c-0.76-0.21-1.55-0.36-2.43-0.56c0.75,1.75,2.37,2.7,4.35,3.01
                                    c3.78,0.58,7.55,1.28,11.32,1.95c0.94,0.17,1.83,0.61,1.95,1.61c0.15,1.17-0.3,2.15-1.32,2.95c-2.99,2.33-6.22,3.4-10.06,2.72
                                    c-3.45-0.61-6.96-0.9-10.42-1.44C241.17,418.54,239.73,416.87,239.45,414.18z M243.52,438.73c-0.86-2.42-1.03-4.93-0.76-7.47
                                    c0.35-3.38,1.75-7.82,3.42-10.86c0.81,0.28,1.48,0.51,2.12,0.74c0,2.98-2.87,17.28-3.86,18.96
                                    C244.09,439.59,243.69,439.2,243.52,438.73z M221.68,473.99c-1.04-0.88-1.96-1.91-3.2-3.14c3.19-3.07,6.11-5.87,9.12-8.77
                                    c1,1.29,1.47,2.19,0.3,3.4c-1.66,1.7-1.77,3.93-1.73,6.17c0.02,0.98,0.53,2.21-0.81,2.8
                                    C224.06,475.04,222.76,474.91,221.68,473.99z M236.73,513.08c-0.62,0.39-1.25,0.8-1.94,1.04c-2.85,1.02-4.66,0.13-5.73-2.7
                                    c-0.92-2.44-1.22-4.87-0.11-7.35c0.96-2.15,1.86-4.33,2.81-6.55c2.74,0.67,5.16,1.26,7.89,1.93
                                    C241.75,503.37,241.19,510.33,236.73,513.08z" />
                <path class="st6"
                    d="M266.2,391.17c0.01-0.01,0.01-0.01,0.02-0.02c0.01-0.01,0.01-0.02,0.02-0.03L266.2,391.17z" />
            </g>
            <g>
                <path class="st7" d="M313.07,211.59c0.65-2.22,1.31-4.43,1.96-6.65c-0.24-0.06-0.47-0.13-0.71-0.19
                                    c-0.55,2.24-1.09,4.49-1.64,6.73C312.81,211.52,312.94,211.55,313.07,211.59z" />
                <path class="st7" d="M315.46,202.02c0.1-0.4,0.2-0.79,0.3-1.19c-0.12-0.03-0.25-0.05-0.37-0.08c-0.07,0.4-0.14,0.8-0.21,1.21
                                    C315.27,201.98,315.36,202,315.46,202.02z" />
                <path class="st7" d="M304.7,243.05c1.34-4.93,2.68-9.87,4.03-14.8c-0.18-0.05-0.36-0.1-0.54-0.15c-1.35,4.9-2.7,9.81-4.05,14.71
                                    C304.32,242.89,304.51,242.97,304.7,243.05z" />
                <path class="st5" d="M343.45,345.88c0.81-1.15,1.8-2.19,2.83-3.41c-0.54-0.08-0.71-0.16-0.83-0.12
                                    c-0.23,0.07-0.46,0.19-0.65,0.34c-2.53,1.92-3.76,4.7-4.89,7.52c-0.2,0.5,0,1.39,0.35,1.83c1.39,1.74,0.62,3.09-0.44,4.6
                                    c-1.32,1.86-2.59,3.75-3.1,6.08c-0.91,4.15-1.89,8.28-2.96,12.39c-0.84,3.24-1.99,6.41-2.77,9.67c-1.04,4.32-0.23,8.3,2.81,11.68
                                    c3.69,4.11,8.06,7.16,13.47,8.58c5.14,1.35,10.38,1.28,15.62,1.11c0.32-0.01,0.63-0.32,1.51-0.79c-1.2-0.36-1.83-0.66-2.5-0.73
                                    c-3.33-0.38-6.67-0.68-10.01-1.05c-4.45-0.49-8.41-2.17-11.64-5.28c-2.06-1.98-3.99-4.12-5.77-6.35
                                    c-1.87-2.35-2.53-5.11-1.75-8.1c0.51-1.98,0.99-3.97,1.61-5.92c1.66-5.31,3.27-10.64,5.13-15.88c1.74-4.9,5.01-7.99,10.59-7.93
                                    c0.9,0.01,1.81-0.36,3.12-0.63c-2.39-1.61-4.51-1.58-6.76-1.2c-2.85,0.49-4.48-0.99-4.18-3.81
                                    C342.32,347.57,342.91,346.66,343.45,345.88z" />
                <path class="st5" d="M274.39,358.74c5.88-22.14,11.74-44.29,17.57-66.45c3.56-13.53,7.09-27.07,10.62-40.61
                                    c0.32-1.24,0.55-2.51,0.82-3.76c-0.22-0.02-0.44-0.05-0.66-0.07c-10.73,40.07-21.55,80.11-31.47,120.39
                                    C272.46,365.12,273.54,361.96,274.39,358.74z" />
                <path class="st7"
                    d="M321.95,177.26c-2.1,6.18-3.76,12.49-5.31,18.83C318.92,190.98,322.32,178.89,321.95,177.26z" />
                <path class="st7"
                    d="M335.38,128.95c-1.8,2.24-1.99,3.09-1.61,5.99C334.39,132.6,334.89,130.78,335.38,128.95z" />
                <path class="st7"
                    d="M394.64,493.24c0.14-0.18,0.26-0.38,0.39-0.56C394.46,493.06,394.21,493.81,394.64,493.24z" />
                <path class="st5" d="M234.88,336.78c3.93,3.3,6.99,7.32,9.75,11.6c2.84,4.4,5.72,8.77,8.6,13.14c0.42,0.65,0.92,1.24,1.39,1.86
                                    c-0.07-1.06-0.5-1.9-1-2.7c-3.44-5.47-6.91-10.92-10.35-16.39c-0.36-0.57-0.61-1.22-1.13-2.29c1.11,0.71,1.74,1.11,2.37,1.51
                                    c-1.7-4.13-3.47-8.12-6.19-11.91c-0.69,0.86-1.12,1.39-1.58,1.96c2.01,1.61,2.86,3.68,3.3,6.02c-1.42-1.22-2.81-2.48-4.27-3.65
                                    c-2.55-2.05-2.78-4.77-2.54-7.74c2.69-0.54,4.34,1.53,6.53,1.93c-1.54-2.06-3.71-2.99-6.15-3.27c-1.08-0.12-1.59,0.73-1.68,1.73
                                    C231.66,331.75,232.34,334.65,234.88,336.78z" />
                <path class="st7" d="M332.62,137.79c0.14-0.02,0.28-0.05,0.43-0.07c-0.04-0.4-0.09-0.79-0.13-1.19
                                    c-0.18,0.05-0.36,0.11-0.55,0.16C332.45,137.05,332.54,137.42,332.62,137.79z" />
                <path class="st7" d="M456.4,359.49c-0.41-4.07-0.87-8.14-1.27-12.21c-0.24-2.44-0.35-4.9-0.66-7.33c-0.64-4.98-3.39-9-6.17-12.95
                                    c-2.72-3.87-6.12-7.02-10.35-9.25c-2.75-1.45-5.45-3.01-8.15-4.55c-3.23-1.84-6.21-3.99-8.4-7.06c-2.28-3.2-4.5-6.45-6.81-9.63
                                    c-1.39-1.92-2.8-3.84-4.38-5.6c-4.74-5.27-10.63-8.91-17.06-11.78c-4.6-2.06-5.99-4.76-4.96-9.6c0.82-3.83,1.87-7.62,2.63-11.47
                                    c1.04-5.21,1.93-10.46,2.83-15.7c1.02-5.89,1.95-11.79,2.99-17.68c0.96-5.42,1.62-10.85,0.96-16.37
                                    c-0.32-2.68-0.31-5.42-0.89-8.04c-0.79-3.57-1.57-7.25-3.12-10.53c-2.72-5.76-7.53-9.77-13.31-12.21
                                    c-7.06-2.98-14.48-4.77-22.26-3.85c-4.07,0.48-8.13,1.39-11.68,3.52c-5.22,3.13-9.22,7.53-12.49,12.65
                                    c-2.32,3.64-4,7.51-4.71,11.77c-0.35,2.1-0.57,4.22-0.97,6.31c-1.59,8.35-1.3,16.8-1.26,25.22c0.02,4.82,0.29,9.65,0.61,14.47
                                    c0.2,3.08,0,6.31,1.59,9.12c1.31,2.32,2.17,4.76,2.68,7.34c0.85,4.25,1.69,8.5,2.46,12.77c0.43,2.4,0.72,4.82,1.09,7.3
                                    c-1.04,0.54-1.91,0.98-2.77,1.44c-7.08,3.78-14.19,7.5-20.58,12.44c-3.71,2.87-7.83,5.08-12.21,6.76
                                    c-0.56,0.21-1.08,0.54-1.66,0.84c0.25,0.27,0.33,0.44,0.46,0.49c0.22,0.09,0.49,0.18,0.71,0.13c3.41-0.81,6.92-1.27,9.76-3.67
                                    c7.54-6.4,16.24-10.7,25.52-13.91c0.35-0.12,0.75-0.12,1.15-0.18c1.01,2.77,0.99,5.68,2.22,8.23c0.94-7.65-0.78-15.1-1.72-23.15
                                    c3.43,3.4,4.97,7.81,9.11,9.81c-0.52-0.96-1.03-1.93-1.61-3c0.43-0.03,0.66-0.07,0.89-0.06c6.62,0.21,13.25,0.41,19.87,0.65
                                    c1.56,0.06,2.92-0.35,4.04-1.44c1.65-1.59,3.27-3.21,4.91-4.82c0.55-0.54,1.13-1.06,2.07-1.95c0.11,5.71-2.92,9.92-4.47,14.71
                                    c1.32-0.14,1.77-0.78,2.11-1.68c3.26-8.45,8.18-16.03,12.66-23.83c0.41-0.72,0.86-1.56,2.03-1.7c-0.06,0.77-0.07,1.42-0.18,2.05
                                    c-1.39,8.4-2.81,16.79-4.17,25.19c-0.37,2.28-0.47,4.59,0.27,6.89c1.1-5.69,1.19-11.57,3.34-17.27c0.69,0.5,1.15,0.82,1.6,1.15
                                    c1.78,1.31,3.47,2.76,5.35,3.91c9.92,6.08,18.2,13.86,24.94,23.35c1.74,2.45,3.84,4.71,6.12,6.67c2.4,2.07,5.13,3.79,7.86,5.44
                                    c6.76,4.07,12.48,9.26,17.24,15.53c2.98,3.92,4.14,8.25,3.26,13.16c-0.52,2.86-0.24,5.7,0.76,8.47
                                    c3.17,8.81-0.77,19.02-8.88,23.83c-1.48,0.88-2.98,1.72-4.43,2.64c-0.69,0.43-1.45,0.87-1.78,2.02c1.76-0.44,3.23-0.81,5.1-1.28
                                    c-0.37,1.23-0.52,2.18-0.92,3.02c-3.11,6.52-6.57,12.83-10.98,18.58c-2.51,3.27-5.32,6.23-9.07,8.14
                                    c-1.69,0.86-2.75,2.29-3.5,3.98c-4.69,10.46-11.41,19.48-19.61,27.42c-3.59,3.47-6.35,7.47-8.41,11.99
                                    c-1.09,2.38-2.15,4.78-3.3,7.14c-1.53,3.15-4.01,5.14-7.5,5.72c-1.37,0.23-2.77,0.27-4.16,0.4c-2.93,0.27-5.87,0.53-8.8,0.82
                                    c-0.28,0.03-0.54,0.25-0.88,0.42c0.61,0.56,1.11,1.02,1.97,1.8c-5.03,2.06-9.61,4.29-14.41,5.83
                                    c-15.96,5.13-32.42,7.89-49.09,9.32c-8.23,0.71-16.22,2.07-23.72,5.71c-1.03,0.5-2.42,0.67-3.55,0.47
                                    c-1.84-0.32-3.6-0.32-5.34,0.21c-6.21,1.93-12.59,2.91-19.06,3.3c-5.23,0.32-10.46,0.63-15.7,0.75
                                    c-1.31,0.03-2.84-0.38-3.92-1.11c-2.7-1.84-5.24-3.93-7.77-6c-1.32-1.08-1.31-1.51-0.43-3.53c2.85,1.22,5.71,2.45,8.56,3.68
                                    c0.09-0.15,0.19-0.31,0.28-0.46c-0.62-0.62-1.14-1.39-1.87-1.83c-1.46-0.89-2.99-1.68-4.55-2.38c-3.69-1.65-3.71-1.61-3.35-5.61
                                    c0.16-1.81,0.41-3.6,2.19-4.74c3.73,0.61,7.47,1.22,11.51,1.88c-0.08-1.23-0.14-2.06-0.21-3.03c-2.06,0-3.85,0.02-5.64-0.01
                                    c-1.31-0.02-2.63,0.01-3.92-0.19c-2.01-0.31-2.75-1.52-1.97-3.32c1.16-2.69,2.89-4.74,6.16-4.87c1.3-0.05,2.6-0.31,3.87-0.58
                                    c1.84-0.38,3.22-1.4,4.2-3.47c-0.99,0.32-1.66,0.57-2.35,0.74c-2.3,0.57-4.58,1.22-6.9,1.63c-2.04,0.36-2.63-0.17-3.08-2.13
                                    c-0.49-2.14,0.15-3.44,2.53-3.96c4.47-0.97,8.97-1.87,13.51-2.43c4.89-0.6,9.37,1.1,13.66,3.27c4.91,2.49,9.91,4.71,15.35,5.78
                                    c1.46,0.29,2.3,1.1,2.71,2.49c0.24,0.82,0.58,1.62,0.87,2.42c0.53-0.61,0.64-1.14,0.7-1.66c0.15-1.25,0.78-2.1,1.97-2.58
                                    c3.56-1.44,7.05-3.09,10.68-4.33c5.11-1.75,10.32-3.2,15.48-4.8c3.56-1.11,6.71-2.92,9.65-5.24c3.34-2.63,6.79-5.16,10.38-7.44
                                    c7.31-4.65,15.11-8.14,23.71-9.73c6.86-1.26,13.09-4.13,18.91-7.91c0.51-0.33,0.96-0.78,1.43-1.17c-0.07-0.15-0.14-0.3-0.22-0.45
                                    c-1.98,0.76-3.95,1.53-5.93,2.29c0.23-1.41,0.71-2.44,1.3-3.39c1.66-2.69,2.87-5.56,3.2-8.69c0.25-2.35,0.2-4.74,0.15-7.11
                                    c-0.05-2.58,0.19-5.09,1.37-7.41c3.99-7.82,8.14-15.53,14.01-22.16c2.31-2.61,4.67-5.19,7.05-7.83c0.78,0.85,1.36,1.48,2.31,2.51
                                    c-0.92-6.84-1.77-13.1-2.62-19.37c-0.12,0.01-0.25,0.01-0.37,0.02c-0.22,2.23-0.45,4.47-0.69,6.93
                                    c-3.75-1.68-4.83-5.26-6.98-7.95c1.28,5.46,4.3,10.14,6.89,14.86c-0.28,0.44-0.39,0.66-0.55,0.84c-0.55,0.61-1.09,1.22-1.67,1.8
                                    c-5.13,5.14-9.34,10.96-12.8,17.34c-1.33,2.45-2.56,4.95-3.99,7.34c-2.95,4.97-4.13,10.22-3.4,16.01
                                    c0.57,4.53-0.56,8.78-3.13,12.61c-0.5,0.74-0.96,1.54-1.27,2.37c-0.82,2.25-2.46,3.36-4.74,3.76c-2.09,0.37-4.19,0.75-6.26,1.22
                                    c-13.63,3.07-25.64,9.3-36.13,18.5c-3.25,2.85-6.88,4.93-11.05,6.19c-7.21,2.18-14.37,4.53-21.55,6.79
                                    c-0.67,0.21-1.38,0.34-2.38,0.58c0.13-1.29,0.1-2.36,0.37-3.35c0.72-2.69,1.51-5.36,2.36-8.01c2.8-8.73,2.9-17.35-0.75-25.91
                                    c-2.54-5.95-2.81-12.24-2.39-18.59c0.06-0.94,0.2-1.93,1.3-2.68c0.58,0.64,1.13,1.22,1.64,1.83c1.1,1.32,2.17,2.67,3.28,3.98
                                    c5.03,5.95,9.69,12.15,13.13,19.2c1.49,3.05,4.17,4.41,7.56,4.56c1.39-2.83,1.52-5.49-0.37-7.97c-1.78-2.34-3.84-4.47-5.52-6.88
                                    c-4.27-6.1-8.41-12.3-12.58-18.47c-0.06-0.08,0.05-0.28,0.12-0.58c0.7,0.14,1.44,0.18,2.1,0.44c2.15,0.84,4.29,0.77,6.51,0.26
                                    c4.39-0.99,8.81-1.85,13.21-2.81c2.39-0.52,4.83-0.97,7.13-1.77c3.54-1.23,5.71-3.82,6.51-7.53c-0.7,0.27-1.25,0.68-1.77,1.15
                                    c-2.1,1.89-4.46,3.37-7.17,4.16c-5.89,1.72-11.82,3.32-17.71,5.02c-3.49,1.01-6.81,0.35-10.09-0.84
                                    c-0.49-0.18-0.93-0.63-1.27-1.05c-3.46-4.45-5.41-9.69-7.63-14.79c-0.26-0.59-0.37-1.26-0.44-1.91
                                    c-0.39-3.26-0.64-6.49,0.48-9.71c0.7-2,1.11-4.11,1.66-6.17c1.13-4.26,2.27-8.52,3.39-12.71c4.3-0.61,8.99-4.8,10.67-8.09
                                    c-3.22,1.52-5.47,4.95-9.7,4.52c0.13-0.76,0.2-1.39,0.34-2c1.33-5.57,2.6-11.16,4.01-16.71c10.41-40.84,20.81-81.69,31.31-122.51
                                    c8.3-32.26,16.75-64.48,25.11-96.72c5.16-19.88,10.33-39.77,15.43-59.67c1.11-4.35,2.34-8.74,2.76-13.19
                                    c0.58-6.18,0.45-12.42,0.61-18.64c0.01-0.25-0.19-0.51-0.33-0.88c-8.2,8.92-11.81,19.63-13.76,31.07
                                    c0.36-0.61,0.63-1.27,0.84-1.94c0.96-3.13,1.94-6.25,2.86-9.39c1.38-4.71,3.78-8.87,6.73-12.74c0.39-0.51,0.71-1.07,1.07-1.6
                                    c0.2,0.14,0.41,0.29,0.61,0.43c-7.88,31.59-17.38,62.78-24.47,94.58c0.42-0.59,0.68-1.23,0.86-1.89c6.13-23,12.27-46,18.38-69
                                    c1.45-5.45,2.82-10.93,4.28-16.38c0.27-1.01,0.36-2.19,1.84-3.25c0,1.36,0.09,2.24-0.02,3.09c-0.51,3.89-0.75,7.84-1.67,11.63
                                    c-3.84,15.9-7.82,31.77-11.88,47.61c-7.91,30.82-15.93,61.61-23.89,92.42c-6.67,25.82-13.33,51.64-19.98,77.46
                                    c-10.02,38.97-20.03,77.94-30.05,116.91c-0.13,0.5-0.38,0.97-0.68,1.73c-0.42-0.68-0.77-1.06-0.89-1.5
                                    c-0.54-2.02-2-3.28-3.46-4.64c-1.78-1.66-3.36-3.56-4.98-5.39c-1.04-1.18-1.35-2.56-0.94-4.12c1.53-5.94,2.94-11.91,4.56-17.82
                                    c9.99-36.45,20.04-72.89,30.04-109.33c8.68-31.64,17.33-63.28,26-94.92c7-25.56,14.01-51.12,20.98-76.69
                                    c0.68-2.48,1.14-5.01,1.71-7.51c-0.56,0.52-0.78,1.13-0.95,1.76c-5.13,18.62-10.26,37.24-15.37,55.87
                                    c-6.24,22.73-12.42,45.48-18.72,68.19c-9.41,33.91-18.92,67.8-28.37,101.7c-2.37,8.52-4.72,17.04-6.97,25.59
                                    c-0.65,2.47-1.83,4.23-4.24,5.3c-1.94,0.85-3.74,2.04-5.53,3.18c-6.79,4.32-11.3,10.34-13.37,18.14
                                    c-0.78,2.93-1.48,5.87-2.23,8.8c-0.19,0.76-0.44,1.51-0.84,2.85c-2.71-4.11-5.28-7.66-8.43-10.78c0.16,0.9,0.53,1.67,1.03,2.34
                                    c2.51,3.33,5.04,6.65,7.59,9.95c0.62,0.8,1.33,1.53,2.01,2.28c0.51,0.76,1.01,1.51,1.52,2.27c0.3,0.34,0.6,0.69,0.9,1.03
                                    c0.39,0.79,0.68,1.65,1.18,2.36c3.77,5.25,7.58,10.47,11.38,15.71c0.72,1,1.42,2.02,2.27,3.25c-2.49,0.37-3.62-0.88-4.68-2.29
                                    c-4.67-6.22-9.33-12.45-14.01-18.67c-0.5-0.67-1.04-1.3-1.56-1.95c-0.14,0.11-0.27,0.21-0.41,0.32c1.64,2.3,3.29,4.59,4.91,6.9
                                    c1.69,2.41,3.36,4.85,5.02,7.28c1.57,2.3,3.5,4.36,5.06,7.02c-1.93,0.21-3.45,0.37-4.95,0.53c-0.2,1.01-0.35,1.8-0.53,2.72
                                    c-2.22,0.45-4.36,1.2-6.85,1.04c0.41-3.65,0.79-7.12,1.18-10.59c-2.82,3.4-2.75,7.66-3.44,11.7c-1.03,0.16-1.83,0.29-2.63,0.42
                                    c-1.7,0.27-3.42,0.42-5.08,0.86c-2.23,0.58-3.01,1.87-2.4,4.01c0.44,1.52,0.05,2.73-0.73,3.94c-0.62,0.96-1.38,1.85-1.89,2.87
                                    c-0.34,0.68-0.66,1.63-0.45,2.29c0.84,2.71,0.31,5.16-0.89,7.6c-0.75,1.53-0.86,3.17-0.3,4.79c0.53,1.53,1.18,3.02,1.83,4.65
                                    c-0.15,0.27-0.36,0.62-0.55,0.98c-1.22,2.33-1.13,3.32,0.66,5.3c0.93,1.03,1.93,2.02,3,2.9c1.03,0.84,1.3,1.75,0.98,3.01
                                    c-0.58,2.3-1.08,4.62-1.55,6.95c-0.67,3.28-0.77,6.54,0.99,9.55c1.61,2.76,2.12,5.63,1.31,8.73c-0.25,0.95-0.46,1.92-0.52,2.9
                                    c-0.09,1.58-0.81,2.26-2.39,2.5c-2.59,0.38-5.15,0.97-7.7,1.56c-1.69,0.39-3.47,0.91-4.18,2.68c-0.64,1.61-1.81,2.68-2.99,3.82
                                    c-2.53,2.45-5.08,4.88-7.54,7.41c-1.99,2.04-1.71,3.9,0.72,5.43c0.76,0.48,1.59,0.85,2.42,1.18c1.12,0.45,2.26,0.81,3.5,1.24
                                    c-0.67,2.81-1.28,5.53-0.24,8.3c0.15,0.4-0.05,0.97-0.18,1.43c-0.54,1.93-0.01,3.56,1.35,4.95c0.97,1,2,1.93,3.01,2.9
                                    c1.71,1.64,1.73,1.65,0.86,3.75c-0.72,1.74-1.55,3.44-2.18,5.21c-0.44,1.22-0.83,2.51-0.9,3.79c-0.32,5.62,1.87,8.11,7.25,8.42
                                    c0.08,0,0.16-0.01,0.25,0c1.8,0.14,3.39-0.31,4.78-1.51c1.64-1.41,2.55-3.2,2.74-5.32c0.19-2.2,0.27-4.41,0.43-6.62
                                    c0.08-1.11,0.23-2.21,0.36-3.44c3.34-0.2,6.44-0.34,9.54-0.59c4.8-0.39,9.64-0.52,14.28-2.16c2.72-0.96,5.6-1.33,8.48-1.04
                                    c3.72,0.37,7.1-0.48,10.43-2.1c4.67-2.29,9.61-3.54,14.85-3.95c7.5-0.58,14.99-1.47,22.46-2.34c6.42-0.75,12.8-1.87,19.24-2.42
                                    c6.02-0.51,11.58-2.09,16.63-5.37c7.68-4.99,15.99-8.19,25.14-9.15c2.72-0.29,5.04-1.49,6.59-3.82c1.37-2.05,2.46-4.26,2.74-6.77
                                    c0.43-3.86,1.93-7.31,4.37-10.26c1.97-2.39,4.17-4.62,6.4-6.78c4.38-4.24,8.27-8.85,11.33-14.15c1.56-2.69,3.15-5.39,4.95-7.91
                                    c1.32-1.84,3-3.44,4.57-5.09c0.32-0.34,0.89-0.45,1.34-0.66c-0.16,1.08-0.58,1.86-1.04,2.6c-5.32,8.46-10.62,16.93-15.97,25.37
                                    c-3.47,5.48-6.66,11.1-8.66,17.31c-1.56,4.83-2.03,9.7-1.05,14.76c0.46,2.36,0.42,4.92,0.03,7.3c-0.62,3.82-1.61,7.58-3.89,10.82
                                    c0.33-0.22,0.77-0.32,1.25,0.03c2.19-3.93,3.2-4.27,4.38-8.5c1.37-4.92,1.25-9.88,0.6-14.87c-0.52-3.97-0.34-7.84,1.43-11.53
                                    c0.64-1.33,1.13-2.72,1.72-4.07c3.58-8.33,8.61-15.8,13.63-23.29c6.43-9.59,12.92-19.15,18.29-29.41
                                    c0.72-1.37,1.62-2.65,2.48-3.95c2.73-4.1,5.41-8.25,7.08-12.89c1.24-3.45,3.08-6.48,5.27-9.36c0.5-0.65,0.94-1.34,1.44-1.99
                                    C455.64,368.9,456.9,364.44,456.4,359.49z M283.66,438.48c3.82,3.34-5.54,23.61-5.54,23.61s-16.8-2.25-17.39-6.89
                                    C278.4,449.94,278.77,444.54,283.66,438.48z" />
                <path class="st5"
                    d="M367.26,307.06c-3.16,6.29-6.32,12.57-9.44,18.88c-0.86,1.75-2.05,2.79-4.11,3
                                    c-2.33,0.23-3.48,1.74-3.7,4.43c1.51-0.58,2.93-1.2,4.4-1.66c2.1-0.65,4.21-1.44,6.37-1.73c8.24-1.13,16.51-1,24.71,0.31
                                    c4.5,0.72,8.89,2.15,13.33,3.26c0.81,0.2,1.66,0.82,2.55-0.19c-0.89-2.61-4.06-1.76-5.56-3.65c1.9-1.84,4.15-2.96,6.57-3.68
                                    c2.58-0.77,5.23-1.34,7.83-2.03c0.58-0.15,1.13-0.42,1.69-0.64c-1.45-0.28-2.83-0.43-4.17-0.25c-2.67,0.36-5.32,0.88-7.97,1.4
                                    c-1.17,0.23-1.95,0.03-2.7-1.03c-2.73-3.91-5.28-7.89-6.73-12.49c-0.16-0.52-0.41-1.02-0.62-1.53
                                    c-0.3,6.17,2.43,11.46,4.51,17.03c-1.89,1.08-3.79,1.91-5.84,1.86c-3.6-0.09-7.18-0.45-10.78-0.67c-1.48-0.09-2.19-0.92-2.42-2.3
                                    c-0.34-2.02-0.68-4.03-1.06-6.04c-0.07-0.39-0.3-0.75-0.45-1.12c-0.17,0.03-0.33,0.06-0.5,0.09c0,3.05,0,6.11,0,9.31
                                    c-4.06,0-7.85,0-11.99,0c2.74-7.64,5.61-14.96,7.67-22.58C368.13,305.63,367.63,306.31,367.26,307.06z" />
                <path class="st7" d="M257.09,366.44c-0.19,0.1-0.38,0.19-0.57,0.29c1,1.93,2.01,3.86,3.01,5.79c0.15-0.08,0.3-0.15,0.45-0.23
                                    C259.02,370.34,258.05,368.39,257.09,366.44z" />
                <path class="st5" d="M324.4,314.49c-0.76,0.55-1.34,0.95-1.89,1.39c-1.28,1.02-2.5,2.12-3.82,3.07
                                    c-0.71,0.51-1.57,1.09-2.39,1.12c-5.57,0.2-10.97-0.36-15.35-4.4c-0.34-0.32-0.75-0.56-1.29-0.95c-0.68,1.33-0.51,2.19,0.41,2.9
                                    c2.47,1.91,4.98,3.65,8.13,4.38c5.38,1.23,10.81,1.76,16.3,1.67c4.28-0.07,8.06,0.96,11.04,4.3c1.06,1.19,2.47,2.08,3.7,3.09
                                    c1.82-1.83,2.87-4.32,2.9-7.02c0.04-4.25,0.02-8.51,0-12.76c0-0.39-0.23-0.78-0.44-1.44c-1.12,1.61-0.91,3.11-0.87,4.55
                                    c0.1,3.29-0.07,6.54-1.07,9.7c-0.39,1.23-0.83,2.45-1.86,3.25c-2.56-1.7-4.84-3.66-7.48-4.83c-2.61-1.16-5.58-1.53-8.45-2.25
                                    C322.13,318.06,324.83,317.11,324.4,314.49z" />
                <path class="st5" d="M292.99,419.12c-1.87-1.32-3.79-2.58-5.69-3.86c-0.13,0.83-0.01,1.41,0.34,1.76
                                    c0.92,0.91,1.84,1.91,2.96,2.52c1.53,0.83,2.22,2.02,2.45,3.64c0.08,0.56,0.25,1.12,0.45,1.65c0.95,2.46,2.59,4.36,4.6,5.95
                                    c0.15-0.1,0.3-0.2,0.45-0.29c-0.37-0.67-0.67-1.39-1.11-2.01c-1.82-2.54-3.39-5.17-3.88-8.33
                                    C293.51,419.78,293.28,419.33,292.99,419.12z" />
                <path class="st5"
                    d="M304.8,418.1c0.26-3.8,0.5-7.3,0.75-10.94C301.6,410.05,301.25,414.66,304.8,418.1z" />
                <path class="st5" d="M307.05,442.36c-2.19-0.18-4.33-0.92-6.49-1.42c0.24,2.72,1.73,4.55,3.88,4.38c3.27-0.25,6.38-1.16,9.23-2.8
                                    c-0.03-0.18-0.05-0.35-0.08-0.53C311.41,442.14,309.21,442.54,307.05,442.36z" />
                <path class="st5"
                    d="M324.03,426.11c-3.47,2.83-4.74,10.78-2.18,14.46C322.84,437.89,324.33,427.71,324.03,426.11z" />
                <path class="st5" d="M377.16,434.95c-0.53,0.93-1.03,1.54-1.24,2.24c-0.35,1.17-0.58,2.39-0.73,3.6c-0.3,2.37-1.6,3.91-3.82,4.63
                                    c-1.79,0.58-3.59,1.24-5.43,1.49c-3.39,0.47-6.82,0.85-10.24,0.93c-6.63,0.15-13.27,0.06-19.9,0.11
                                    c-1.52,0.01-3.09-0.05-4.86,1.46c1.28,0.03,2.04,0.09,2.79,0.07c4.09-0.12,8.17-0.38,12.26-0.37c4.91,0.01,9.82,0.32,14.73,0.36
                                    c2.61,0.02,5.25-0.09,7.83-0.42C375.22,448.2,379.21,441.88,377.16,434.95z" />
                <path class="st5" d="M437,376.04c-5.99,2.08-11.99,4.14-17.96,6.25c-0.48,0.17-0.84,0.65-1.78,1.41c1.5,0.15,2.47,0.48,3.32,0.3
                                    c6.04-1.33,11.45-4.12,16.64-7.34C437.15,376.45,437.08,376.24,437,376.04z" />
                <path class="st5" d="M346.08,459.47c-9.62,2.95-19.42,5.25-29.37,6.86c-5.32,0.86-10.59,2.05-15.87,3.12
                                    c-0.39,0.08-0.74,0.37-1.11,0.56c0.04,0.16,0.08,0.32,0.13,0.47c0.77-0.07,1.55-0.1,2.32-0.21c7.28-1.11,14.52-2.53,21.83-3.29
                                    c14.79-1.54,28.01-7.5,41.17-14.2c-0.64,0.05-1.3,0-1.9,0.17c-1.57,0.46-3.13,0.96-4.65,1.56
                                    C354.45,456.16,350.37,458.16,346.08,459.47z" />
                <path class="st5" d="M423.18,372.57c-2.99,2.01-6,3.98-8.93,6.08c-2.25,1.61-4.73,2.56-7.43,3.02c-1.05,0.18-2.11,0.3-3.15,0.51
                                    c-1.57,0.31-2.96,0.97-3.93,2.3c-4.55,6.21-9.09,12.42-13.63,18.63c-1,1.37-1.98,2.77-2.97,4.15c-0.23,0.32-0.44,0.64-0.92,1.35
                                    c3.16-1.83,5.14-4.14,6.79-6.67c4.32-6.59,9.91-11.95,15.91-16.94c1.59-1.32,3.37-2.28,5.47-2.63c0.86-0.14,1.76-0.51,2.47-1.01
                                    c3.81-2.69,7.58-5.45,11.34-8.21c0.45-0.33,0.74-0.86,1.11-1.3c-0.11-0.12-0.23-0.25-0.34-0.37
                                    C424.36,371.85,423.75,372.19,423.18,372.57z" />
                <path class="st5"
                    d="M321.55,416.57c-1.5,2.56-3.65,3.66-5.91,4.63c-1.04,0.44-2.05,0.98-3.04,1.53
                                    c-0.26,0.14-0.38,0.53-0.87,1.27c2.95-0.8,5.38-1.37,7.75-2.13C322.1,421.02,322.58,419.85,321.55,416.57z" />
                <path class="st5" d="M403.55,414.88c-3.21,1.12-5.88,2.81-7.51,5.92c-0.45,0.86-1.13,1.6-1.73,2.38
                                    c-1.08,1.41-2.18,2.81-3.28,4.22c0.14,0.1,0.28,0.21,0.43,0.31c1.27-1.14,2.69-2.15,3.79-3.44c2.59-3.03,5.65-5.47,9.12-7.37
                                    c2.08-1.14,4.25-2.12,6.43-3.03c4.57-1.9,7.69-5.46,10.77-9.13c-1.34,0.59-2.59,1.3-3.69,2.21
                                    C413.6,410.5,408.77,413.06,403.55,414.88z" />
                <path class="st5" d="M346.96,426.84c3.54,0.61,5.57-1.86,7.64-4.26c-2.62,1.2-5.24,2.41-7.85,3.61
                                    C346.82,426.41,346.89,426.62,346.96,426.84z" />
                <path class="st5"
                    d="M327.72,420.57c4.15,2.55,8.69,4.17,13.33,5.5c0.63,0.18,1.34,0.09,2.02,0.12c0.05-0.23,0.1-0.46,0.16-0.68
                                    c-0.69-0.4-1.37-0.84-2.08-1.2c-3.86-1.96-7.76-3.86-11.6-5.86c-3.38-1.75-3.83-2.94-2.74-6.52c0.36-1.17,0.77-2.33,1.13-3.5
                                    c0.2-0.65,0.16-1.24-0.84-1.76c-0.73,2.62-1.52,5.09-2.1,7.6C324.21,417.57,324.79,418.77,327.72,420.57z" />
                <path class="st5" d="M336.2,356.79c0.05-0.25,0.09-0.5,0.14-0.75c-0.95-0.86-1.75-2.13-2.86-2.51c-2.57-0.88-5.31-1.01-8.12-0.56
                                    c2.75,1.63,5.54,3.09,8.44,4.32C334.42,357.55,335.39,356.98,336.2,356.79z" />
            </g>
        </g>
    </g>
</svg>